<?xml version="1.0" encoding="UTF-8" standalone="no"?>
<!-- Created with Inkscape (http://www.inkscape.org/) -->

<svg
   xmlns:dc="http://purl.org/dc/elements/1.1/"
   xmlns:cc="http://creativecommons.org/ns#"
   xmlns:rdf="http://www.w3.org/1999/02/22-rdf-syntax-ns#"
   xmlns:svg="http://www.w3.org/2000/svg"
   xmlns="http://www.w3.org/2000/svg"
   xmlns:xlink="http://www.w3.org/1999/xlink"
   xmlns:sodipodi="http://sodipodi.sourceforge.net/DTD/sodipodi-0.dtd"
   xmlns:inkscape="http://www.inkscape.org/namespaces/inkscape"
   width="81.192657mm"
   height="28.202291mm"
   viewBox="0 0 287.69052 99.929378"
   id="svg4694"
   version="1.1"
   inkscape:version="0.91 r13725"
   sodipodi:docname="privacylab_digital_self-defense.svg"
   inkscape:export-filename="/home/diggity/Desktop/PRIVACY LAB/privacylab_logo/privacylab_digital_self-defense.png"
   inkscape:export-xdpi="338.14285"
   inkscape:export-ydpi="338.14285">
  <defs
     id="defs4696">
    <linearGradient
       inkscape:collect="always"
       xlink:href="#linearGradient4453"
       id="linearGradient4370"
       x1="-105.08423"
       y1="362.35941"
       x2="-105.08424"
       y2="399.94574"
       gradientUnits="userSpaceOnUse"
       gradientTransform="matrix(1.6617173,0,0,-1.6617173,297.85345,1165.53)" />
    <linearGradient
       inkscape:collect="always"
       id="linearGradient4453">
      <stop
         style="stop-color:#000000;stop-opacity:1;"
         offset="0"
         id="stop4455" />
      <stop
         style="stop-color:#000000;stop-opacity:0;"
         offset="1"
         id="stop4457" />
    </linearGradient>
    <path
       inkscape:connector-curvature="0"
       d="m -1404.1282,-394.17267 c -2.7656,-1.74164 -5.3929,-5.10861 -5.116,-8.35914 -0.2764,-5.31129 4.8406,-9.79472 10.6486,-9.56189 0,0 47.9862,1.10823 74.9543,-24.7191 14.6596,-13.88583 21.022,-32.99676 19.5027,-57.92757 -3.5916,-56.20327 9.1335,-94.42506 37.3457,-113.47542 33.6058,-22.50352 75.0913,-9.22093 76.4743,-8.35004 5.6696,1.85807 9.5413,7.72114 8.0198,12.75643 -1.5216,5.03532 -7.6065,8.05299 -13.2761,6.19493 0,0 -32.6355,-10.27779 -57.3903,6.66884 -22.4038,15.00233 -32.5011,48.02932 -29.0475,97.29604 1.7958,30.24212 -6.7797,53.95288 -25.4499,72.16267 -34.0213,31.66018 -88.5068,29.88372 -90.7195,30.20269 -2.0742,-1.30627 -4.5633,-2.0176 -5.9461,-2.88844"
       id="path8"
       style="fill:none;fill-opacity:1;stroke:none" />
    <linearGradient
       gradientTransform="matrix(1.3104799,0,0,1.31048,204.76858,1046.3094)"
       gradientUnits="userSpaceOnUse"
       y2="-307.87781"
       x2="162.47327"
       y1="-307.87781"
       x1="45.873314"
       id="linearGradient4459-3"
       xlink:href="#linearGradient4453"
       inkscape:collect="always" />
    <linearGradient
       gradientTransform="matrix(4.9766787,0,0,4.9766785,390.86595,1908.0532)"
       gradientUnits="userSpaceOnUse"
       y2="-307.87781"
       x2="162.47327"
       y1="-307.87781"
       x1="45.873314"
       id="linearGradient4308"
       xlink:href="#linearGradient4453"
       inkscape:collect="always" />
  </defs>
  <sodipodi:namedview
     id="base"
     pagecolor="#ffffff"
     bordercolor="#666666"
     borderopacity="1.0"
     inkscape:pageopacity="0.0"
     inkscape:pageshadow="2"
     inkscape:zoom="1.979899"
     inkscape:cx="144.64677"
     inkscape:cy="29.597933"
     inkscape:document-units="px"
     inkscape:current-layer="layer1"
     showgrid="false"
     fit-margin-left="0"
     fit-margin-top="0"
     fit-margin-bottom="0"
     fit-margin-right="0"
     inkscape:window-width="1920"
     inkscape:window-height="1107"
     inkscape:window-x="0"
     inkscape:window-y="25"
     inkscape:window-maximized="1" />
  <metadata
     id="metadata4699">
    <rdf:RDF>
      <cc:Work
         rdf:about="">
        <dc:format>image/svg+xml</dc:format>
        <dc:type
           rdf:resource="http://purl.org/dc/dcmitype/StillImage" />
        <dc:title></dc:title>
      </cc:Work>
    </rdf:RDF>
  </metadata>
  <g
     inkscape:label="Layer 1"
     inkscape:groupmode="layer"
     id="layer1"
     transform="translate(-92.939552,-569.61906)">
    <g
       id="g4219"
       transform="matrix(0.41796699,0,0,0.41796699,59.296202,356.80595)">
      <path
         id="path10-3"
         d="m 235.53642,545.55343 c -24.67881,0 -91.41588,38.16231 -90.72063,129.02497 0,14.53803 0.69515,50.88309 7.64686,56.69831 6.95176,6.17865 23.98366,-9.44972 32.32576,-5.45175 8.34216,4.3614 11.12285,19.98978 20.50776,22.17047 9.38485,2.18071 20.85532,-10.54007 30.24025,-10.54007 9.38488,0 21.20285,12.72078 30.24016,10.54007 9.03731,-2.18069 12.16556,-17.80907 20.50772,-22.17047 7.99453,-3.99797 25.374,11.26697 32.32565,5.45175 6.95178,-6.17866 7.64703,-42.52372 7.64703,-56.69831 0.69513,-82.13985 -58.3949,-129.02497 -90.72056,-129.02497"
         style="fill:#286dc0;fill-opacity:1"
         inkscape:connector-curvature="0" />
      <path
         inkscape:connector-curvature="0"
         id="path10-3-7"
         d="m 235.5368,545.55374 c -0.34544,0 -0.70156,0.009 -1.06313,0.025 l 0,191.93481 c 0.357,-0.0341 0.71175,-0.0584 1.06313,-0.0584 9.38481,0 21.20247,12.7205 30.23978,10.53978 9.03731,-2.18068 12.16512,-17.80825 20.50731,-22.16965 7.99447,-3.99797 25.37469,11.26697 32.32641,5.45178 6.95175,-6.17869 7.64715,-42.5235 7.64715,-56.69806 0.69522,-82.13984 -58.395,-129.02512 -90.72065,-129.02512 z"
         style="fill:#00356b;fill-opacity:1" />
      <path
         d="m 122.05971,557.83437 c -3.67979,0 -6.65004,3.126 -6.65004,6.99067 l 0,91.2562 c 0,3.85384 2.97025,6.98194 6.65004,6.98194 l 17.78285,0 c 3.6807,0 6.66182,-3.1281 6.66182,-6.98371 0,-3.86782 -2.98112,-6.99592 -6.66182,-6.99592 l -11.12622,0 0,-84.25851 c 0,-3.86467 -2.9794,-6.99067 -6.65663,-6.99067"
         style="fill:#28242c;fill-opacity:1;fill-rule:evenodd;stroke:none"
         id="path290"
         inkscape:connector-curvature="0" />
      <path
         d="m 203.20829,686.14121 c 0,3.09581 -2.51037,5.59912 -5.58523,5.59912 -3.08631,0 -5.59904,-2.501 -5.59904,-5.59912 0,-3.08175 2.51273,-5.5851 5.59904,-5.5851 3.07486,0 5.58523,2.50335 5.58523,5.5851"
         style="fill:#ffffff;fill-opacity:1;fill-rule:evenodd;stroke:none"
         id="path350"
         inkscape:connector-curvature="0" />
      <path
         d="m 240.67627,686.14121 c 0,3.09581 -2.51028,5.59912 -5.58503,5.59912 -3.08635,0 -5.59913,-2.501 -5.59913,-5.59912 0,-3.08175 2.51278,-5.5851 5.59913,-5.5851 3.07475,0 5.58503,2.50335 5.58503,5.5851"
         style="fill:#ffffff;fill-opacity:1;fill-rule:evenodd;stroke:none"
         id="path350-9"
         inkscape:connector-curvature="0" />
      <path
         d="m 278.14445,686.14121 c 0,3.09581 -2.51031,5.59912 -5.58506,5.59912 -3.08644,0 -5.59922,-2.501 -5.59922,-5.59912 0,-3.08175 2.51278,-5.5851 5.59922,-5.5851 3.07475,0 5.58506,2.50335 5.58506,5.5851"
         style="fill:#ffffff;fill-opacity:1;fill-rule:evenodd;stroke:none"
         id="path350-9-1"
         inkscape:connector-curvature="0" />
      <path
         d="m 141.14258,670.13705 c 0,2.74975 1.93326,4.98606 4.31314,4.98606 2.37319,-5.3e-4 4.30233,-2.23631 4.30233,-4.98606 l 0,-27.41084 c 0,-2.75203 -1.92989,-4.9815 -4.30233,-4.9815 -2.37988,0 -4.31314,2.22947 -4.31314,4.9815 l 0,27.41084"
         style="fill:#003e7a;fill-opacity:1;fill-rule:evenodd;stroke:none"
         id="path354"
         inkscape:connector-curvature="0" />
      <path
         style="fill:url(#linearGradient4370);fill-opacity:1"
         sodipodi:nodetypes="ccccsccccsccccccsccsc"
         inkscape:connector-curvature="0"
         d="m 103.70752,551.0248 6.32377,5.30241 c 6.30723,-7.53284 19.03476,-7.53284 25.33381,0.006 l 6.33191,-5.28503 c -4.72877,-5.65275 -11.65608,-8.89175 -19.0024,-8.89175 -7.34674,0 -14.26597,3.23031 -18.98709,8.86809 z m -11.58246,-11.81609 6.11387,5.54234 c 6.24265,-6.89553 15.1516,-10.84228 24.456,-10.84228 9.29649,0 18.20543,3.94675 24.44868,10.82597 l 6.10594,-5.54234 c -7.80699,-8.60316 -18.94038,-13.53238 -30.55462,-13.53238 -11.62403,-2.8e-4 -22.76474,4.94553 -30.56987,13.54869 z m -11.63222,-11.71975 6.02489,5.63072 c 9.32779,-9.98166 22.51504,-15.70897 36.17688,-15.70897 13.86404,0 26.70308,5.57497 36.16062,15.69238 l 6.02595,-5.63944 c -10.87559,-11.63081 -26.25368,-18.30116 -42.18684,-18.30116 -15.94145,0 -31.31889,6.67797 -42.2015,18.32647 z"
         id="path5" />
      <path
         d="m 320.9213,670.13705 c 0,2.74975 1.93325,4.98606 4.31312,4.98606 2.37319,-5.3e-4 4.30235,-2.23631 4.30235,-4.98606 l 0,-27.41084 c 0,-2.75203 -1.92991,-4.9815 -4.30235,-4.9815 -2.37987,0 -4.31312,2.22947 -4.31312,4.9815 l 0,27.41084"
         style="fill:#4078bd;fill-opacity:1;fill-rule:evenodd;stroke:none"
         id="path354-5"
         inkscape:connector-curvature="0" />
      <path
         style="fill:#d4aa00;fill-opacity:1"
         inkscape:connector-curvature="0"
         id="path20"
         d="m 273.79595,622.90487 c 0,21.55134 -17.4884,38.86309 -38.86309,38.86309 -21.37472,0 -38.86312,-17.31175 -38.86312,-38.86309 0,-21.37472 17.4884,-38.8631 38.86312,-38.8631 21.55134,0 38.86309,17.48838 38.86309,38.8631" />
      <path
         style="fill:#ffffff;fill-opacity:1"
         inkscape:connector-curvature="0"
         id="path22"
         d="m 269.55633,622.90487 c 0,19.07824 -15.54525,34.62346 -34.62347,34.62346 -19.07825,0 -34.6235,-15.54522 -34.6235,-34.62346 0,-19.07825 15.54525,-34.6235 34.6235,-34.6235 19.07822,0.17656 34.62347,15.54525 34.62347,34.6235" />
      <circle
         r="28.087412"
         style="fill:#6eb1e1;fill-opacity:1"
         id="circle24"
         cy="622.90491"
         cx="234.93286" />
      <circle
         r="15.191935"
         style="fill:#212528"
         id="circle26"
         cy="622.90491"
         cx="234.93286" />
      <path
         d="m 255.60095,611.06927 c 0,4.76956 -3.88634,8.65588 -8.65587,8.65588 -4.76953,0 -8.65584,-3.88632 -8.65584,-8.65588 0,-4.76956 3.88631,-8.65587 8.65584,-8.65587 4.76953,-0.17657 8.65587,3.88631 8.65587,8.65587"
         id="path30"
         inkscape:connector-curvature="0"
         style="opacity:0.5;fill:#f5f5f5" />
      <circle
         r="3.3563576"
         cx="219.91757"
         cy="638.0968"
         id="circle34"
         style="opacity:0.5;fill:#f5f5f5" />
    </g>
    <g
       id="g4265"
       transform="matrix(1.6099098,0,0,-1.6099098,199.63832,1137.6093)">
      <path
         d="m 11.420558,322.65002 c 4.01938,0 5.885521,1.55512 5.885521,4.88068 l 0,7.46456 c 0,3.32556 -1.866141,4.88068 -5.885521,4.88068 l -8.0626838,0 c -0.598122,0 -0.8612956,-0.26318 -0.8612956,-0.8613 l 0,-15.50332 c 0,-0.59812 0.2631736,-0.8613 0.8612956,-0.8613 l 8.0626838,0 z m -6.3161676,2.15324 0,12.91944 5.7898206,0 c 3.253784,0 3.827981,-1.48334 3.827981,-3.32556 l 0,-6.34009 c 0,-1.84222 -0.526348,-3.25379 -3.827981,-3.25379 l -5.7898206,0 z m 5.7898206,12.68019 -5.5505718,0 0,-12.44094 5.5505718,0 c 3.062385,0 3.588732,1.26802 3.588732,3.01454 l 0,6.34009 c 0,1.74652 -0.574197,3.08631 -3.588732,3.08631 z m -2.9666849,-2.17716 2.8470609,0 c 0.765596,0 1.124469,-0.35888 1.124469,-1.1484 l 0,-5.81374 c 0,-0.81345 -0.358873,-1.17232 -1.124469,-1.17232 l -2.8470609,0 0,8.13446 z"
         style="font-style:normal;font-variant:normal;font-weight:600;font-stretch:normal;font-size:medium;line-height:93.99999976%;font-family:Bungee;-inkscape-font-specification:'Bungee Semi-Bold';letter-spacing:0px;word-spacing:0px;fill:#c83737;fill-opacity:1;stroke:none;stroke-width:1px;stroke-linecap:butt;stroke-linejoin:miter;stroke-opacity:1"
         id="path4168"
         inkscape:connector-curvature="0" />
      <path
         d="m 20.825279,322.65002 10.191998,0 c 0.598122,0 0.861296,0.26318 0.861296,0.8613 l 0,2.84706 c 0,0.59812 -0.263174,0.8613 -0.861296,0.8613 l -2.320713,0 0,8.03876 2.320713,0 c 0.598122,0 0.861296,0.26317 0.861296,0.86129 l 0,2.89491 c 0,0.59812 -0.263174,0.8613 -0.861296,0.8613 l -10.191998,0 c -0.598122,0 -0.861296,-0.26318 -0.861296,-0.8613 l 0,-2.89491 c 0,-0.59812 0.263174,-0.86129 0.861296,-0.86129 l 2.368563,0 0,-8.03876 -2.368563,0 c -0.598122,0 -0.861296,-0.26318 -0.861296,-0.8613 l 0,-2.84706 c 0,-0.59812 0.263174,-0.8613 0.861296,-0.8613 z m 8.900055,2.15324 -7.608112,0 0,0.23925 3.708356,0 0,12.44094 -3.708356,0 0,0.23925 7.608112,0 0,-0.23925 -3.660507,0 0,-12.44094 3.660507,0 0,-0.23925 z"
         style="font-style:normal;font-variant:normal;font-weight:600;font-stretch:normal;font-size:medium;line-height:93.99999976%;font-family:Bungee;-inkscape-font-specification:'Bungee Semi-Bold';letter-spacing:0px;word-spacing:0px;fill:#c83737;fill-opacity:1;stroke:none;stroke-width:1px;stroke-linecap:butt;stroke-linejoin:miter;stroke-opacity:1"
         id="path4170"
         inkscape:connector-curvature="0" />
      <path
         d="m 47.99123,322.65002 c 0.598122,0 0.861296,0.26318 0.861296,0.8613 l 0,7.39279 c 0,0.59812 -0.263174,0.86129 -0.861296,0.86129 l -3.708356,0 c -0.598122,0 -0.861296,-0.26317 -0.861296,-0.86129 l 0,-3.73228 -2.320713,0 c -0.741671,0 -1.100545,0.35887 -1.100545,1.17232 l 0,5.71804 c 0,0.81345 0.454573,1.19625 1.459418,1.19625 l 4.976375,0 c 0.598122,0 0.861296,0.26317 0.861296,0.86129 l 0,2.89491 c 0,0.59812 -0.263174,0.8613 -0.861296,0.8613 l -5.98122,0 c -4.01938,0 -5.88552,-1.55512 -5.88552,-4.88068 l 0,-7.46456 c 0,-3.32556 1.86614,-4.88068 5.88552,-4.88068 l 7.536337,0 z m -6.507567,2.15324 c -3.516957,0 -4.306478,0.8613 -4.306478,3.08631 l 0,6.69897 c 0,2.27286 0.765596,3.13416 3.82798,3.13416 l 4.139004,0 0,-0.23925 -4.139004,0 c -2.823135,0 -3.588731,-0.7656 -3.588731,-2.89491 l 0,-6.69897 c 0,-2.08146 0.83737,-2.84706 4.067229,-2.84706 l 4.521802,0 0,4.56965 0.239249,0 0,-4.8089 -4.761051,0 z"
         style="font-style:normal;font-variant:normal;font-weight:600;font-stretch:normal;font-size:medium;line-height:93.99999976%;font-family:Bungee;-inkscape-font-specification:'Bungee Semi-Bold';letter-spacing:0px;word-spacing:0px;fill:#c83737;fill-opacity:1;stroke:none;stroke-width:1px;stroke-linecap:butt;stroke-linejoin:miter;stroke-opacity:1"
         id="path4172"
         inkscape:connector-curvature="0" />
      <path
         d="m 52.273412,322.65002 10.191999,0 c 0.598122,0 0.861295,0.26318 0.861295,0.8613 l 0,2.84706 c 0,0.59812 -0.263173,0.8613 -0.861295,0.8613 l -2.320714,0 0,8.03876 2.320714,0 c 0.598122,0 0.861295,0.26317 0.861295,0.86129 l 0,2.89491 c 0,0.59812 -0.263173,0.8613 -0.861295,0.8613 l -10.191999,0 c -0.598122,0 -0.861295,-0.26318 -0.861295,-0.8613 l 0,-2.89491 c 0,-0.59812 0.263173,-0.86129 0.861295,-0.86129 l 2.368563,0 0,-8.03876 -2.368563,0 c -0.598122,0 -0.861295,-0.26318 -0.861295,-0.8613 l 0,-2.84706 c 0,-0.59812 0.263173,-0.8613 0.861295,-0.8613 z m 8.900055,2.15324 -7.608111,0 0,0.23925 3.708356,0 0,12.44094 -3.708356,0 0,0.23925 7.608111,0 0,-0.23925 -3.660506,0 0,-12.44094 3.660506,0 0,-0.23925 z"
         style="font-style:normal;font-variant:normal;font-weight:600;font-stretch:normal;font-size:medium;line-height:93.99999976%;font-family:Bungee;-inkscape-font-specification:'Bungee Semi-Bold';letter-spacing:0px;word-spacing:0px;fill:#c83737;fill-opacity:1;stroke:none;stroke-width:1px;stroke-linecap:butt;stroke-linejoin:miter;stroke-opacity:1"
         id="path4174"
         inkscape:connector-curvature="0" />
      <path
         d="m 74.415141,322.65002 c 0.598122,0 0.861295,0.26318 0.861295,0.8613 l 0,11.74712 3.516958,0 c 0.598122,0 0.861295,0.26317 0.861295,0.86129 l 0,2.89491 c 0,0.59812 -0.263173,0.8613 -0.861295,0.8613 l -12.632336,0 c -0.598122,0 -0.861296,-0.26318 -0.861296,-0.8613 l 0,-2.89491 c 0,-0.59812 0.263174,-0.86129 0.861296,-0.86129 l 3.516957,0 0,-11.74712 c 0,-0.59812 0.263173,-0.8613 0.861295,-0.8613 l 3.875831,0 z m -2.05754,2.15324 0,12.68019 -4.9046,0 0,0.23925 10.048449,0 0,-0.23925 -4.9046,0 0,-12.68019 -0.239249,0 z"
         style="font-style:normal;font-variant:normal;font-weight:600;font-stretch:normal;font-size:medium;line-height:93.99999976%;font-family:Bungee;-inkscape-font-specification:'Bungee Semi-Bold';letter-spacing:0px;word-spacing:0px;fill:#c83737;fill-opacity:1;stroke:none;stroke-width:1px;stroke-linecap:butt;stroke-linejoin:miter;stroke-opacity:1"
         id="path4176"
         inkscape:connector-curvature="0" />
      <path
         d="m 83.463231,329.89926 0,-0.74167 9.330703,0 0,0.74167 c 0,0.8613 -0.14355,1.57904 -0.382798,2.22502 l -1.650817,3.89975 c -0.358873,0.83737 -0.622047,1.45942 -1.507267,1.45942 l -2.344639,0 c -0.956995,0 -1.220168,-0.62205 -1.531192,-1.43549 l -1.531192,-3.92368 c -0.239249,-0.64598 -0.382798,-1.36372 -0.382798,-2.22502 z m 3.827981,4.95245 c 0.119624,0.2871 0.263173,0.40673 0.454572,0.40673 l 0.598122,0 c 0.191399,0 0.334949,-0.11963 0.454573,-0.40673 l 1.124469,-3.63658 -3.756206,0 1.12447,3.63658 z m 5.502722,-10.04845 0,4.11508 -9.330703,0 0,-4.11508 -0.239249,0 0,5.096 c 0,0.88522 0.143549,1.62689 0.406723,2.32072 l 1.531192,3.92368 c 0.358874,0.88522 0.645972,1.57904 1.746516,1.57904 l 2.344639,0 c 1.052694,0 1.339793,-0.6699 1.722591,-1.60297 l 1.650817,-3.89975 c 0.263173,-0.69383 0.406723,-1.4355 0.406723,-2.32072 l 0,-5.096 -0.239249,0 z m -6.866441,-1.29194 0,3.34948 4.234704,0 0,-3.34948 c 0,-0.59812 0.287099,-0.8613 0.93307,-0.8613 l 3.612657,0 c 0.598122,0 0.861296,0.26318 0.861296,0.8613 l 0,6.31617 c 0,0.95699 -0.287099,2.15324 -0.933071,3.82798 l -2.081464,5.43095 c -0.191399,0.55027 -0.574197,0.78952 -1.196244,0.78952 l -6.435792,0 c -0.645972,0 -1.02877,-0.23925 -1.220169,-0.78952 l -2.081465,-5.43095 c -0.645972,-1.67474 -0.93307,-2.87099 -0.93307,-3.82798 l 0,-6.31617 c 0,-0.59812 0.263174,-0.8613 0.861296,-0.8613 l 3.516957,0 c 0.598122,0 0.861295,0.26318 0.861295,0.8613 z"
         style="font-style:normal;font-variant:normal;font-weight:600;font-stretch:normal;font-size:medium;line-height:93.99999976%;font-family:Bungee;-inkscape-font-specification:'Bungee Semi-Bold';letter-spacing:0px;word-spacing:0px;fill:#c83737;fill-opacity:1;stroke:none;stroke-width:1px;stroke-linecap:butt;stroke-linejoin:miter;stroke-opacity:1"
         id="path4178"
         inkscape:connector-curvature="0" />
      <path
         d="m 111.56225,322.65002 c 0.59812,0 0.86129,0.26318 0.86129,0.8613 l 0,7.53634 c 0,0.59812 -0.26317,0.86129 -0.86129,0.86129 l -3.46911,0 c -0.59812,0 -0.86129,-0.26317 -0.86129,-0.86129 l 0,-3.87583 -3.27771,0 0,11.84281 c 0,0.59812 -0.26318,0.8613 -0.8613,0.8613 l -3.708354,0 c -0.598122,0 -0.861296,-0.26318 -0.861296,-0.8613 l 0,-15.50332 c 0,-0.59812 0.263174,-0.8613 0.861296,-0.8613 l 12.177764,0 z m -10.43125,2.15324 0,12.91944 0.23925,0 0,-12.68019 8.32586,0 0,4.7132 0.23925,0 0,-4.95245 -8.80436,0 z"
         style="font-style:normal;font-variant:normal;font-weight:600;font-stretch:normal;font-size:medium;line-height:93.99999976%;font-family:Bungee;-inkscape-font-specification:'Bungee Semi-Bold';letter-spacing:0px;word-spacing:0px;fill:#c83737;fill-opacity:1;stroke:none;stroke-width:1px;stroke-linecap:butt;stroke-linejoin:miter;stroke-opacity:1"
         id="path4180"
         inkscape:connector-curvature="0" />
    </g>
    <g
       id="g4225"
       transform="matrix(0.96721082,0,0,-0.96721082,201.55727,929.29318)">
      <path
         d="m 10.487488,277.67125 c 3.08631,0 4.95245,1.48334 4.95245,4.21078 l 0,2.51211 c 0,2.67959 -1.483342,3.63658 -3.732281,3.97153 l -3.564807,0.4785 c -0.4067229,0.0478 -0.6459717,0.33495 -0.6459717,0.7656 0,0.43064 0.2392488,0.71774 0.6459717,0.71774 l 5.574497,0 c 0.598122,0 0.861295,0.26318 0.861295,0.8613 l 0,2.84706 c 0,0.59812 -0.263173,0.86129 -0.861295,0.86129 l -6.6989663,0 c -3.1102343,0 -4.95245,-1.48334 -4.95245,-4.21077 l 0,-2.51212 c 0,-2.67958 1.4594177,-3.63658 3.7083563,-3.97153 l 3.5887318,-0.50242 c 0.406723,-0.0478 0.6220469,-0.26317 0.6220469,-0.81344 0,-0.3828 -0.2153239,-0.69383 -0.6220469,-0.69383 l -6.4357924,0 c -0.598122,0 -0.8612957,-0.26317 -0.8612957,-0.86129 l 0,-2.79921 c 0,-0.59812 0.2631737,-0.8613 0.8612957,-0.8613 l 7.5602616,0 z m 1.937915,15.07268 0,-0.23925 -5.3113228,0 c -1.3397932,0 -2.2010889,-0.81345 -2.2010889,-1.93792 l 0,-1.96184 c 0,-1.12447 0.4784976,-1.45942 1.2201689,-1.60297 l 5.0481498,-1.02877 c 0.956995,-0.19139 1.650816,-0.66989 1.650816,-2.34463 l 0,-1.38765 c 0,-1.41156 -1.028769,-2.41641 -2.655661,-2.41641 l -5.9572952,0 0,0.23925 5.9572952,0 c 1.483342,0 2.416413,0.90915 2.416413,2.17716 l 0,1.38765 c 0,1.50726 -0.574198,1.91399 -1.459418,2.10539 l -5.0481496,1.02877 c -0.8373708,0.16747 -1.4115679,0.52634 -1.4115679,1.84221 l 0,1.96184 c 0,1.26802 0.9569952,2.17717 2.4403377,2.17717 l 5.3113228,0 z"
         style="font-style:normal;font-variant:normal;font-weight:600;font-stretch:normal;font-size:medium;line-height:93.99999976%;font-family:Bungee;-inkscape-font-specification:'Bungee Semi-Bold';letter-spacing:0px;word-spacing:0px;fill:#c83737;fill-opacity:1;stroke:none;stroke-width:1px;stroke-linecap:butt;stroke-linejoin:miter;stroke-opacity:1"
         id="path4182"
         inkscape:connector-curvature="0" />
      <path
         d="m 30.019535,277.67125 c 0.598122,0 0.861296,0.26318 0.861296,0.8613 l 0,2.79921 c 0,0.59812 -0.263174,0.86129 -0.861296,0.86129 l -6.603266,0 0,2.05754 4.665351,0 c 0.598122,0 0.861296,0.26318 0.861296,0.8613 l 0,2.55996 c 0,0.59812 -0.263174,0.8613 -0.861296,0.8613 l -4.665351,0 0,1.84221 6.603266,0 c 0.598122,0 0.861296,0.26318 0.861296,0.8613 l 0,2.79921 c 0,0.59812 -0.263174,0.86129 -0.861296,0.86129 l -11.101143,0 c -0.598122,0 -0.861296,-0.26317 -0.861296,-0.86129 l 0,-15.50332 c 0,-0.59812 0.263174,-0.8613 0.861296,-0.8613 l 11.101143,0 z m -1.291943,2.39249 0,-0.23925 -8.062684,0 0,12.91944 8.062684,0 0,-0.23925 -7.823436,0 0,-6.00515 5.885521,0 0,-0.23925 -5.885521,0 0,-6.19654 7.823436,0 z"
         style="font-style:normal;font-variant:normal;font-weight:600;font-stretch:normal;font-size:medium;line-height:93.99999976%;font-family:Bungee;-inkscape-font-specification:'Bungee Semi-Bold';letter-spacing:0px;word-spacing:0px;fill:#c83737;fill-opacity:1;stroke:none;stroke-width:1px;stroke-linecap:butt;stroke-linejoin:miter;stroke-opacity:1"
         id="path4184"
         inkscape:connector-curvature="0" />
      <path
         d="m 46.750129,277.67125 c 0.598122,0 0.861295,0.26318 0.861295,0.8613 l 0,7.53633 c 0,0.59813 -0.263173,0.8613 -0.861295,0.8613 l -3.469108,0 c -0.598122,0 -0.861296,-0.26317 -0.861296,-0.8613 l 0,-3.87583 -3.277708,0 0,11.84282 c 0,0.59812 -0.263174,0.86129 -0.861296,0.86129 l -3.708356,0 c -0.598122,0 -0.861296,-0.26317 -0.861296,-0.86129 l 0,-15.50332 c 0,-0.59812 0.263174,-0.8613 0.861296,-0.8613 l 12.177764,0 z m -10.431248,2.15324 0,12.91944 0.239249,0 0,-12.68019 8.325858,0 0,4.7132 0.239249,0 0,-4.95245 -8.804356,0 z"
         style="font-style:normal;font-variant:normal;font-weight:600;font-stretch:normal;font-size:medium;line-height:93.99999976%;font-family:Bungee;-inkscape-font-specification:'Bungee Semi-Bold';letter-spacing:0px;word-spacing:0px;fill:#c83737;fill-opacity:1;stroke:none;stroke-width:1px;stroke-linecap:butt;stroke-linejoin:miter;stroke-opacity:1"
         id="path4186"
         inkscape:connector-curvature="0" />
      <path
         d="m 54.915989,277.67125 c 0.598122,0 0.861295,0.26318 0.861295,0.8613 l 0,4.7132 4.162929,0 c 0.598122,0 0.861296,0.26317 0.861296,0.86129 l 0,2.87099 c 0,0.59812 -0.263174,0.8613 -0.861296,0.8613 l -4.162929,0 0,2.48818 6.100844,0 c 0.598122,0 0.861296,0.26318 0.861296,0.8613 l 0,2.84706 c 0,0.59812 -0.263174,0.86129 -0.861296,0.86129 l -10.670496,0 c -0.598122,0 -0.861295,-0.26317 -0.861295,-0.86129 l 0,-15.50332 c 0,-0.59812 0.263173,-0.8613 0.861295,-0.8613 l 3.708357,0 z m -1.96184,2.15324 0,12.91944 7.632036,0 0,-0.23925 -7.392788,0 0,-6.84252 5.454873,0 0,-0.23925 -5.454873,0 0,-5.59842 -0.239248,0 z"
         style="font-style:normal;font-variant:normal;font-weight:600;font-stretch:normal;font-size:medium;line-height:93.99999976%;font-family:Bungee;-inkscape-font-specification:'Bungee Semi-Bold';letter-spacing:0px;word-spacing:0px;fill:#c83737;fill-opacity:1;stroke:none;stroke-width:1px;stroke-linecap:butt;stroke-linejoin:miter;stroke-opacity:1"
         id="path4188"
         inkscape:connector-curvature="0" />
      <path
         d="m 64.812666,283.81995 6.411867,0 c 0.598122,0 0.861296,0.23924 0.861296,0.86129 l 0,3.20594 c 0,0.62204 -0.263174,0.86129 -0.861296,0.86129 l -6.411867,0 c -0.598122,0 -0.861296,-0.26317 -0.861296,-0.86129 l 0,-3.20594 c 0,-0.62205 0.263174,-0.86129 0.861296,-0.86129 z m 5.119924,2.58388 0,-0.23925 -3.827981,0 0,0.23925 3.827981,0 z"
         style="font-style:normal;font-variant:normal;font-weight:600;font-stretch:normal;font-size:medium;line-height:93.99999976%;font-family:Bungee;-inkscape-font-specification:'Bungee Semi-Bold';letter-spacing:0px;word-spacing:0px;fill:#c83737;fill-opacity:1;stroke:none;stroke-width:1px;stroke-linecap:butt;stroke-linejoin:miter;stroke-opacity:1"
         id="path4190"
         inkscape:connector-curvature="0" />
      <path
         d="m 83.615749,277.67125 c 4.01938,0 5.88552,1.55512 5.88552,4.88068 l 0,7.46456 c 0,3.32556 -1.86614,4.88067 -5.88552,4.88067 l -8.062684,0 c -0.598122,0 -0.861296,-0.26317 -0.861296,-0.86129 l 0,-15.50332 c 0,-0.59812 0.263174,-0.8613 0.861296,-0.8613 l 8.062684,0 z m -6.316168,2.15324 0,12.91944 5.789821,0 c 3.253783,0 3.82798,-1.48335 3.82798,-3.32556 l 0,-6.3401 c 0,-1.84221 -0.526347,-3.25378 -3.82798,-3.25378 l -5.789821,0 z m 5.789821,12.68019 -5.550572,0 0,-12.44094 5.550572,0 c 3.062384,0 3.588731,1.26802 3.588731,3.01453 l 0,6.3401 c 0,1.74651 -0.574197,3.08631 -3.588731,3.08631 z m -2.966685,-2.17717 2.84706,0 c 0.765596,0 1.124469,-0.35887 1.124469,-1.14839 l 0,-5.81375 c 0,-0.81344 -0.358873,-1.17232 -1.124469,-1.17232 l -2.84706,0 0,8.13446 z"
         style="font-style:normal;font-variant:normal;font-weight:600;font-stretch:normal;font-size:medium;line-height:93.99999976%;font-family:Bungee;-inkscape-font-specification:'Bungee Semi-Bold';letter-spacing:0px;word-spacing:0px;fill:#c83737;fill-opacity:1;stroke:none;stroke-width:1px;stroke-linecap:butt;stroke-linejoin:miter;stroke-opacity:1"
         id="path4192"
         inkscape:connector-curvature="0" />
      <path
         d="m 104.50441,277.67125 c 0.59812,0 0.8613,0.26318 0.8613,0.8613 l 0,2.79921 c 0,0.59812 -0.26318,0.86129 -0.8613,0.86129 l -6.603264,0 0,2.05754 4.665354,0 c 0.59812,0 0.86129,0.26318 0.86129,0.8613 l 0,2.55996 c 0,0.59812 -0.26317,0.8613 -0.86129,0.8613 l -4.665354,0 0,1.84221 6.603264,0 c 0.59812,0 0.8613,0.26318 0.8613,0.8613 l 0,2.79921 c 0,0.59812 -0.26318,0.86129 -0.8613,0.86129 l -11.101141,0 c -0.598122,0 -0.861296,-0.26317 -0.861296,-0.86129 l 0,-15.50332 c 0,-0.59812 0.263174,-0.8613 0.861296,-0.8613 l 11.101141,0 z m -1.29194,2.39249 0,-0.23925 -8.062685,0 0,12.91944 8.062685,0 0,-0.23925 -7.823436,0 0,-6.00515 5.885516,0 0,-0.23925 -5.885516,0 0,-6.19654 7.823436,0 z"
         style="font-style:normal;font-variant:normal;font-weight:600;font-stretch:normal;font-size:medium;line-height:93.99999976%;font-family:Bungee;-inkscape-font-specification:'Bungee Semi-Bold';letter-spacing:0px;word-spacing:0px;fill:#c83737;fill-opacity:1;stroke:none;stroke-width:1px;stroke-linecap:butt;stroke-linejoin:miter;stroke-opacity:1"
         id="path4194"
         inkscape:connector-curvature="0" />
      <path
         d="m 112.7656,277.67125 c 0.59812,0 0.8613,0.26318 0.8613,0.8613 l 0,4.7132 4.16293,0 c 0.59812,0 0.86129,0.26317 0.86129,0.86129 l 0,2.87099 c 0,0.59812 -0.26317,0.8613 -0.86129,0.8613 l -4.16293,0 0,2.48818 6.10084,0 c 0.59812,0 0.8613,0.26318 0.8613,0.8613 l 0,2.84706 c 0,0.59812 -0.26318,0.86129 -0.8613,0.86129 l -10.67049,0 c -0.59813,0 -0.8613,-0.26317 -0.8613,-0.86129 l 0,-15.50332 c 0,-0.59812 0.26317,-0.8613 0.8613,-0.8613 l 3.70835,0 z m -1.96184,2.15324 0,12.91944 7.63204,0 0,-0.23925 -7.39279,0 0,-6.84252 5.45487,0 0,-0.23925 -5.45487,0 0,-5.59842 -0.23925,0 z"
         style="font-style:normal;font-variant:normal;font-weight:600;font-stretch:normal;font-size:medium;line-height:93.99999976%;font-family:Bungee;-inkscape-font-specification:'Bungee Semi-Bold';letter-spacing:0px;word-spacing:0px;fill:#c83737;fill-opacity:1;stroke:none;stroke-width:1px;stroke-linecap:butt;stroke-linejoin:miter;stroke-opacity:1"
         id="path4196"
         inkscape:connector-curvature="0" />
      <path
         d="m 134.92453,277.67125 c 0.59812,0 0.86129,0.26318 0.86129,0.8613 l 0,2.79921 c 0,0.59812 -0.26317,0.86129 -0.86129,0.86129 l -6.60327,0 0,2.05754 4.66535,0 c 0.59812,0 0.8613,0.26318 0.8613,0.8613 l 0,2.55996 c 0,0.59812 -0.26318,0.8613 -0.8613,0.8613 l -4.66535,0 0,1.84221 6.60327,0 c 0.59812,0 0.86129,0.26318 0.86129,0.8613 l 0,2.79921 c 0,0.59812 -0.26317,0.86129 -0.86129,0.86129 l -11.10115,0 c -0.59812,0 -0.86129,-0.26317 -0.86129,-0.86129 l 0,-15.50332 c 0,-0.59812 0.26317,-0.8613 0.86129,-0.8613 l 11.10115,0 z m -1.29195,2.39249 0,-0.23925 -8.06268,0 0,12.91944 8.06268,0 0,-0.23925 -7.82343,0 0,-6.00515 5.88552,0 0,-0.23925 -5.88552,0 0,-6.19654 7.82343,0 z"
         style="font-style:normal;font-variant:normal;font-weight:600;font-stretch:normal;font-size:medium;line-height:93.99999976%;font-family:Bungee;-inkscape-font-specification:'Bungee Semi-Bold';letter-spacing:0px;word-spacing:0px;fill:#c83737;fill-opacity:1;stroke:none;stroke-width:1px;stroke-linecap:butt;stroke-linejoin:miter;stroke-opacity:1"
         id="path4198"
         inkscape:connector-curvature="0" />
      <path
         d="m 141.77414,292.55253 8.80435,-9.9049 0,10.0963 0.23925,0 0,-12.91944 -0.23925,0 0,2.46426 -9.0436,10.14415 c -0.0478,0.0478 -0.0718,0.0718 -0.11962,0.0718 -0.0478,0 -0.0478,-0.0478 -0.0478,-0.0718 l 0,-12.60841 -0.23925,0 0,12.65626 c 0,0.1914 0.14355,0.2871 0.2871,0.2871 0.14354,0 0.19139,-0.0478 0.35887,-0.21532 z m 1.29194,-14.88128 c 0.59812,0 0.8613,0.26318 0.8613,0.8613 l 0,7.89521 4.09115,-4.95245 0,-2.94276 c 0,-0.59812 0.26318,-0.8613 0.8613,-0.8613 l 3.58873,0 c 0.59812,0 0.8613,0.26318 0.8613,0.8613 l 0,15.50332 c 0,0.59812 -0.26318,0.86129 -0.8613,0.86129 l -3.58873,0 c -0.59812,0 -0.8613,-0.26317 -0.8613,-0.86129 l 0,-5.096 -4.64142,5.31132 c -0.40673,0.4785 -0.78953,0.64597 -1.41157,0.64597 l -2.48819,0 c -0.59812,0 -0.8613,-0.26317 -0.8613,-0.86129 l 0,-15.50332 c 0,-0.59812 0.26318,-0.8613 0.8613,-0.8613 l 3.58873,0 z"
         style="font-style:normal;font-variant:normal;font-weight:600;font-stretch:normal;font-size:medium;line-height:93.99999976%;font-family:Bungee;-inkscape-font-specification:'Bungee Semi-Bold';letter-spacing:0px;word-spacing:0px;fill:#c83737;fill-opacity:1;stroke:none;stroke-width:1px;stroke-linecap:butt;stroke-linejoin:miter;stroke-opacity:1"
         id="path4200"
         inkscape:connector-curvature="0" />
      <path
         d="m 164.64407,277.67125 c 3.08631,0 4.95245,1.48334 4.95245,4.21078 l 0,2.51211 c 0,2.67959 -1.48334,3.63658 -3.73228,3.97153 l -3.5648,0.4785 c -0.40673,0.0478 -0.64598,0.33495 -0.64598,0.7656 0,0.43064 0.23925,0.71774 0.64598,0.71774 l 5.57449,0 c 0.59812,0 0.8613,0.26318 0.8613,0.8613 l 0,2.84706 c 0,0.59812 -0.26318,0.86129 -0.8613,0.86129 l -6.69896,0 c -3.11024,0 -4.95245,-1.48334 -4.95245,-4.21077 l 0,-2.51212 c 0,-2.67958 1.45941,-3.63658 3.70835,-3.97153 l 3.58873,-0.50242 c 0.40673,-0.0478 0.62205,-0.26317 0.62205,-0.81344 0,-0.3828 -0.21532,-0.69383 -0.62205,-0.69383 l -6.43579,0 c -0.59812,0 -0.86129,-0.26317 -0.86129,-0.86129 l 0,-2.79921 c 0,-0.59812 0.26317,-0.8613 0.86129,-0.8613 l 7.56026,0 z m 1.93792,15.07268 0,-0.23925 -5.31132,0 c -1.3398,0 -2.20109,-0.81345 -2.20109,-1.93792 l 0,-1.96184 c 0,-1.12447 0.47849,-1.45942 1.22017,-1.60297 l 5.04815,-1.02877 c 0.95699,-0.19139 1.65081,-0.66989 1.65081,-2.34463 l 0,-1.38765 c 0,-1.41156 -1.02877,-2.41641 -2.65566,-2.41641 l -5.95729,0 0,0.23925 5.95729,0 c 1.48334,0 2.41641,0.90915 2.41641,2.17716 l 0,1.38765 c 0,1.50726 -0.57419,1.91399 -1.45941,2.10539 l -5.04815,1.02877 c -0.83737,0.16747 -1.41157,0.52634 -1.41157,1.84221 l 0,1.96184 c 0,1.26802 0.95699,2.17717 2.44034,2.17717 l 5.31132,0 z"
         style="font-style:normal;font-variant:normal;font-weight:600;font-stretch:normal;font-size:medium;line-height:93.99999976%;font-family:Bungee;-inkscape-font-specification:'Bungee Semi-Bold';letter-spacing:0px;word-spacing:0px;fill:#c83737;fill-opacity:1;stroke:none;stroke-width:1px;stroke-linecap:butt;stroke-linejoin:miter;stroke-opacity:1"
         id="path4202"
         inkscape:connector-curvature="0" />
      <path
         d="m 184.17614,277.67125 c 0.59812,0 0.86129,0.26318 0.86129,0.8613 l 0,2.79921 c 0,0.59812 -0.26317,0.86129 -0.86129,0.86129 l -6.60327,0 0,2.05754 4.66535,0 c 0.59812,0 0.8613,0.26318 0.8613,0.8613 l 0,2.55996 c 0,0.59812 -0.26318,0.8613 -0.8613,0.8613 l -4.66535,0 0,1.84221 6.60327,0 c 0.59812,0 0.86129,0.26318 0.86129,0.8613 l 0,2.79921 c 0,0.59812 -0.26317,0.86129 -0.86129,0.86129 l -11.10115,0 c -0.59812,0 -0.86129,-0.26317 -0.86129,-0.86129 l 0,-15.50332 c 0,-0.59812 0.26317,-0.8613 0.86129,-0.8613 l 11.10115,0 z m -1.29195,2.39249 0,-0.23925 -8.06268,0 0,12.91944 8.06268,0 0,-0.23925 -7.82343,0 0,-6.00515 5.88552,0 0,-0.23925 -5.88552,0 0,-6.19654 7.82343,0 z"
         style="font-style:normal;font-variant:normal;font-weight:600;font-stretch:normal;font-size:medium;line-height:93.99999976%;font-family:Bungee;-inkscape-font-specification:'Bungee Semi-Bold';letter-spacing:0px;word-spacing:0px;fill:#c83737;fill-opacity:1;stroke:none;stroke-width:1px;stroke-linecap:butt;stroke-linejoin:miter;stroke-opacity:1"
         id="path4204"
         inkscape:connector-curvature="0" />
    </g>
    <text
       xml:space="preserve"
       style="font-style:normal;font-weight:normal;font-size:11.51689243px;line-height:125%;font-family:Sans;letter-spacing:0px;word-spacing:0px;fill:url(#linearGradient4459-3);fill-opacity:1;stroke:none;stroke-width:1px;stroke-linecap:butt;stroke-linejoin:miter;stroke-opacity:1"
       x="195.45181"
       y="646.44263"
       id="text5364-0-6"
       sodipodi:linespacing="125%"
       transform="scale(1.0175607,0.98274236)"><tspan
         sodipodi:role="line"
         id="tspan5366-7"
         x="195.45181"
         y="646.44263"
         style="fill:url(#linearGradient4459-3);fill-opacity:1">011110010110111101110101</tspan></text>
    <text
       xml:space="preserve"
       style="font-style:normal;font-weight:normal;font-size:40px;line-height:125%;font-family:sans-serif;letter-spacing:0px;word-spacing:0px;fill:#000000;fill-opacity:1;stroke:none;stroke-width:1px;stroke-linecap:butt;stroke-linejoin:miter;stroke-opacity:1"
       x="213.63248"
       y="683.22614"
       id="text4236"
       sodipodi:linespacing="125%"><tspan
         sodipodi:role="line"
         id="tspan4238"
         x="213.63248"
         y="683.22614" /></text>
  </g>
</svg>
