<?xml version="1.0" encoding="UTF-8" standalone="no"?>
<!-- Created with Inkscape (http://www.inkscape.org/) -->

<svg
   xmlns:dc="http://purl.org/dc/elements/1.1/"
   xmlns:cc="http://creativecommons.org/ns#"
   xmlns:rdf="http://www.w3.org/1999/02/22-rdf-syntax-ns#"
   xmlns:svg="http://www.w3.org/2000/svg"
   xmlns="http://www.w3.org/2000/svg"
   xmlns:xlink="http://www.w3.org/1999/xlink"
   xmlns:sodipodi="http://sodipodi.sourceforge.net/DTD/sodipodi-0.dtd"
   xmlns:inkscape="http://www.inkscape.org/namespaces/inkscape"
   width="112.93241mm"
   height="36.723156mm"
   viewBox="0 0 400.15421 130.12142"
   id="svg4191"
   version="1.1"
   inkscape:version="0.91 r13725"
   sodipodi:docname="privacy_lab_logo_paths.svg">
  <defs
     id="defs4193">
    <linearGradient
       inkscape:collect="always"
       id="linearGradient4453">
      <stop
         style="stop-color:#000000;stop-opacity:1;"
         offset="0"
         id="stop4455" />
      <stop
         style="stop-color:#000000;stop-opacity:0;"
         offset="1"
         id="stop4457" />
    </linearGradient>
    <linearGradient
       inkscape:collect="always"
       xlink:href="#linearGradient4453"
       id="linearGradient4759"
       x1="45.873314"
       y1="-307.87781"
       x2="162.47327"
       y2="-307.87781"
       gradientUnits="userSpaceOnUse"
       gradientTransform="matrix(2.7986314,0,0,2.7986314,-905.96671,556.75341)" />
    <linearGradient
       inkscape:collect="always"
       xlink:href="#linearGradient4453"
       id="linearGradient4291"
       gradientUnits="userSpaceOnUse"
       gradientTransform="matrix(5.0610126,0,0,5.0610126,292.52755,1823.3671)"
       x1="45.873314"
       y1="-307.87781"
       x2="162.47327"
       y2="-307.87781" />
    <linearGradient
       inkscape:collect="always"
       xlink:href="#linearGradient4453"
       id="linearGradient4293"
       gradientUnits="userSpaceOnUse"
       gradientTransform="matrix(5.0610126,0,0,5.0610126,292.52755,1823.3671)"
       x1="45.873314"
       y1="-307.87781"
       x2="162.47327"
       y2="-307.87781" />
    <linearGradient
       inkscape:collect="always"
       xlink:href="#linearGradient4453"
       id="linearGradient4295"
       gradientUnits="userSpaceOnUse"
       gradientTransform="matrix(5.0610126,0,0,5.0610126,292.52755,1823.3671)"
       x1="45.873314"
       y1="-307.87781"
       x2="162.47327"
       y2="-307.87781" />
    <linearGradient
       inkscape:collect="always"
       xlink:href="#linearGradient4453"
       id="linearGradient4297"
       gradientUnits="userSpaceOnUse"
       gradientTransform="matrix(5.0610126,0,0,5.0610126,292.52755,1823.3671)"
       x1="45.873314"
       y1="-307.87781"
       x2="162.47327"
       y2="-307.87781" />
    <linearGradient
       inkscape:collect="always"
       xlink:href="#linearGradient4453"
       id="linearGradient4299"
       gradientUnits="userSpaceOnUse"
       gradientTransform="matrix(5.0610126,0,0,5.0610126,292.52755,1823.3671)"
       x1="45.873314"
       y1="-307.87781"
       x2="162.47327"
       y2="-307.87781" />
    <linearGradient
       inkscape:collect="always"
       xlink:href="#linearGradient4453"
       id="linearGradient4301"
       gradientUnits="userSpaceOnUse"
       gradientTransform="matrix(5.0610126,0,0,5.0610126,292.52755,1823.3671)"
       x1="45.873314"
       y1="-307.87781"
       x2="162.47327"
       y2="-307.87781" />
    <linearGradient
       inkscape:collect="always"
       xlink:href="#linearGradient4453"
       id="linearGradient4303"
       gradientUnits="userSpaceOnUse"
       gradientTransform="matrix(5.0610126,0,0,5.0610126,292.52755,1823.3671)"
       x1="45.873314"
       y1="-307.87781"
       x2="162.47327"
       y2="-307.87781" />
    <linearGradient
       inkscape:collect="always"
       xlink:href="#linearGradient4453"
       id="linearGradient4305"
       gradientUnits="userSpaceOnUse"
       gradientTransform="matrix(5.0610126,0,0,5.0610126,292.52755,1823.3671)"
       x1="45.873314"
       y1="-307.87781"
       x2="162.47327"
       y2="-307.87781" />
    <linearGradient
       inkscape:collect="always"
       xlink:href="#linearGradient4453"
       id="linearGradient4307"
       gradientUnits="userSpaceOnUse"
       gradientTransform="matrix(5.0610126,0,0,5.0610126,292.52755,1823.3671)"
       x1="45.873314"
       y1="-307.87781"
       x2="162.47327"
       y2="-307.87781" />
    <linearGradient
       inkscape:collect="always"
       xlink:href="#linearGradient4453"
       id="linearGradient4309"
       gradientUnits="userSpaceOnUse"
       gradientTransform="matrix(5.0610126,0,0,5.0610126,292.52755,1823.3671)"
       x1="45.873314"
       y1="-307.87781"
       x2="162.47327"
       y2="-307.87781" />
    <linearGradient
       inkscape:collect="always"
       xlink:href="#linearGradient4453"
       id="linearGradient4311"
       gradientUnits="userSpaceOnUse"
       gradientTransform="matrix(5.0610126,0,0,5.0610126,292.52755,1823.3671)"
       x1="45.873314"
       y1="-307.87781"
       x2="162.47327"
       y2="-307.87781" />
    <linearGradient
       inkscape:collect="always"
       xlink:href="#linearGradient4453"
       id="linearGradient4313"
       gradientUnits="userSpaceOnUse"
       gradientTransform="matrix(5.0610126,0,0,5.0610126,292.52755,1823.3671)"
       x1="45.873314"
       y1="-307.87781"
       x2="162.47327"
       y2="-307.87781" />
    <linearGradient
       inkscape:collect="always"
       xlink:href="#linearGradient4453"
       id="linearGradient4315"
       gradientUnits="userSpaceOnUse"
       gradientTransform="matrix(5.0610126,0,0,5.0610126,292.52755,1823.3671)"
       x1="45.873314"
       y1="-307.87781"
       x2="162.47327"
       y2="-307.87781" />
    <linearGradient
       inkscape:collect="always"
       xlink:href="#linearGradient4453"
       id="linearGradient4317"
       gradientUnits="userSpaceOnUse"
       gradientTransform="matrix(5.0610126,0,0,5.0610126,292.52755,1823.3671)"
       x1="45.873314"
       y1="-307.87781"
       x2="162.47327"
       y2="-307.87781" />
    <linearGradient
       inkscape:collect="always"
       xlink:href="#linearGradient4453"
       id="linearGradient4319"
       gradientUnits="userSpaceOnUse"
       gradientTransform="matrix(5.0610126,0,0,5.0610126,292.52755,1823.3671)"
       x1="45.873314"
       y1="-307.87781"
       x2="162.47327"
       y2="-307.87781" />
    <linearGradient
       inkscape:collect="always"
       xlink:href="#linearGradient4453"
       id="linearGradient4321"
       gradientUnits="userSpaceOnUse"
       gradientTransform="matrix(5.0610126,0,0,5.0610126,292.52755,1823.3671)"
       x1="45.873314"
       y1="-307.87781"
       x2="162.47327"
       y2="-307.87781" />
    <linearGradient
       inkscape:collect="always"
       xlink:href="#linearGradient4453"
       id="linearGradient4323"
       gradientUnits="userSpaceOnUse"
       gradientTransform="matrix(5.0610126,0,0,5.0610126,292.52755,1823.3671)"
       x1="45.873314"
       y1="-307.87781"
       x2="162.47327"
       y2="-307.87781" />
    <linearGradient
       inkscape:collect="always"
       xlink:href="#linearGradient4453"
       id="linearGradient4325"
       gradientUnits="userSpaceOnUse"
       gradientTransform="matrix(5.0610126,0,0,5.0610126,292.52755,1823.3671)"
       x1="45.873314"
       y1="-307.87781"
       x2="162.47327"
       y2="-307.87781" />
    <linearGradient
       inkscape:collect="always"
       xlink:href="#linearGradient4453"
       id="linearGradient4327"
       gradientUnits="userSpaceOnUse"
       gradientTransform="matrix(5.0610126,0,0,5.0610126,292.52755,1823.3671)"
       x1="45.873314"
       y1="-307.87781"
       x2="162.47327"
       y2="-307.87781" />
    <linearGradient
       inkscape:collect="always"
       xlink:href="#linearGradient4453"
       id="linearGradient4329"
       gradientUnits="userSpaceOnUse"
       gradientTransform="matrix(5.0610126,0,0,5.0610126,292.52755,1823.3671)"
       x1="45.873314"
       y1="-307.87781"
       x2="162.47327"
       y2="-307.87781" />
    <linearGradient
       inkscape:collect="always"
       xlink:href="#linearGradient4453"
       id="linearGradient4331"
       gradientUnits="userSpaceOnUse"
       gradientTransform="matrix(5.0610126,0,0,5.0610126,292.52755,1823.3671)"
       x1="45.873314"
       y1="-307.87781"
       x2="162.47327"
       y2="-307.87781" />
    <linearGradient
       inkscape:collect="always"
       xlink:href="#linearGradient4453"
       id="linearGradient4333"
       gradientUnits="userSpaceOnUse"
       gradientTransform="matrix(5.0610126,0,0,5.0610126,292.52755,1823.3671)"
       x1="45.873314"
       y1="-307.87781"
       x2="162.47327"
       y2="-307.87781" />
    <linearGradient
       inkscape:collect="always"
       xlink:href="#linearGradient4453"
       id="linearGradient4335"
       gradientUnits="userSpaceOnUse"
       gradientTransform="matrix(5.0610126,0,0,5.0610126,292.52755,1823.3671)"
       x1="45.873314"
       y1="-307.87781"
       x2="162.47327"
       y2="-307.87781" />
    <linearGradient
       inkscape:collect="always"
       xlink:href="#linearGradient4453"
       id="linearGradient4337"
       gradientUnits="userSpaceOnUse"
       gradientTransform="matrix(5.0610126,0,0,5.0610126,292.52755,1823.3671)"
       x1="45.873314"
       y1="-307.87781"
       x2="162.47327"
       y2="-307.87781" />
    <linearGradient
       inkscape:collect="always"
       xlink:href="#linearGradient4453"
       id="linearGradient4339"
       gradientUnits="userSpaceOnUse"
       gradientTransform="matrix(5.0610126,0,0,5.0610126,292.52755,1823.3671)"
       x1="45.873314"
       y1="-307.87781"
       x2="162.47327"
       y2="-307.87781" />
    <linearGradient
       inkscape:collect="always"
       xlink:href="#linearGradient4453"
       id="linearGradient4341"
       gradientUnits="userSpaceOnUse"
       gradientTransform="matrix(5.0610126,0,0,5.0610126,292.52755,1823.3671)"
       x1="45.873314"
       y1="-307.87781"
       x2="162.47327"
       y2="-307.87781" />
    <linearGradient
       inkscape:collect="always"
       xlink:href="#linearGradient4453"
       id="linearGradient4343"
       gradientUnits="userSpaceOnUse"
       gradientTransform="matrix(5.0610126,0,0,5.0610126,292.52755,1823.3671)"
       x1="45.873314"
       y1="-307.87781"
       x2="162.47327"
       y2="-307.87781" />
    <linearGradient
       inkscape:collect="always"
       xlink:href="#linearGradient4453"
       id="linearGradient4345"
       gradientUnits="userSpaceOnUse"
       gradientTransform="matrix(5.0610126,0,0,5.0610126,292.52755,1823.3671)"
       x1="45.873314"
       y1="-307.87781"
       x2="162.47327"
       y2="-307.87781" />
    <linearGradient
       inkscape:collect="always"
       xlink:href="#linearGradient4453"
       id="linearGradient4347"
       gradientUnits="userSpaceOnUse"
       gradientTransform="matrix(5.0610126,0,0,5.0610126,292.52755,1823.3671)"
       x1="45.873314"
       y1="-307.87781"
       x2="162.47327"
       y2="-307.87781" />
    <linearGradient
       inkscape:collect="always"
       xlink:href="#linearGradient4453"
       id="linearGradient4349"
       gradientUnits="userSpaceOnUse"
       gradientTransform="matrix(5.0610126,0,0,5.0610126,292.52755,1823.3671)"
       x1="45.873314"
       y1="-307.87781"
       x2="162.47327"
       y2="-307.87781" />
    <linearGradient
       inkscape:collect="always"
       xlink:href="#linearGradient4453"
       id="linearGradient4351"
       gradientUnits="userSpaceOnUse"
       gradientTransform="matrix(5.0610126,0,0,5.0610126,292.52755,1823.3671)"
       x1="45.873314"
       y1="-307.87781"
       x2="162.47327"
       y2="-307.87781" />
    <linearGradient
       inkscape:collect="always"
       xlink:href="#linearGradient4453"
       id="linearGradient4353"
       gradientUnits="userSpaceOnUse"
       gradientTransform="matrix(5.0610126,0,0,5.0610126,292.52755,1823.3671)"
       x1="45.873314"
       y1="-307.87781"
       x2="162.47327"
       y2="-307.87781" />
    <linearGradient
       inkscape:collect="always"
       xlink:href="#linearGradient4453"
       id="linearGradient4355"
       gradientUnits="userSpaceOnUse"
       gradientTransform="matrix(5.0610126,0,0,5.0610126,292.52755,1823.3671)"
       x1="45.873314"
       y1="-307.87781"
       x2="162.47327"
       y2="-307.87781" />
    <linearGradient
       inkscape:collect="always"
       xlink:href="#linearGradient4453"
       id="linearGradient4357"
       gradientUnits="userSpaceOnUse"
       gradientTransform="matrix(5.0610126,0,0,5.0610126,292.52755,1823.3671)"
       x1="45.873314"
       y1="-307.87781"
       x2="162.47327"
       y2="-307.87781" />
    <linearGradient
       inkscape:collect="always"
       xlink:href="#linearGradient4453"
       id="linearGradient4359"
       gradientUnits="userSpaceOnUse"
       gradientTransform="matrix(5.0610126,0,0,5.0610126,292.52755,1823.3671)"
       x1="45.873314"
       y1="-307.87781"
       x2="162.47327"
       y2="-307.87781" />
    <linearGradient
       inkscape:collect="always"
       xlink:href="#linearGradient4453"
       id="linearGradient4361"
       gradientUnits="userSpaceOnUse"
       gradientTransform="matrix(5.0610126,0,0,5.0610126,292.52755,1823.3671)"
       x1="45.873314"
       y1="-307.87781"
       x2="162.47327"
       y2="-307.87781" />
    <linearGradient
       inkscape:collect="always"
       xlink:href="#linearGradient4453"
       id="linearGradient4363"
       gradientUnits="userSpaceOnUse"
       gradientTransform="matrix(5.0610126,0,0,5.0610126,292.52755,1823.3671)"
       x1="45.873314"
       y1="-307.87781"
       x2="162.47327"
       y2="-307.87781" />
    <linearGradient
       inkscape:collect="always"
       xlink:href="#linearGradient4453"
       id="linearGradient4365"
       gradientUnits="userSpaceOnUse"
       gradientTransform="matrix(5.0610126,0,0,5.0610126,292.52755,1823.3671)"
       x1="45.873314"
       y1="-307.87781"
       x2="162.47327"
       y2="-307.87781" />
    <linearGradient
       inkscape:collect="always"
       xlink:href="#linearGradient4453"
       id="linearGradient4367"
       gradientUnits="userSpaceOnUse"
       gradientTransform="matrix(5.0610126,0,0,5.0610126,292.52755,1823.3671)"
       x1="45.873314"
       y1="-307.87781"
       x2="162.47327"
       y2="-307.87781" />
    <linearGradient
       inkscape:collect="always"
       xlink:href="#linearGradient4453"
       id="linearGradient4369"
       gradientUnits="userSpaceOnUse"
       gradientTransform="matrix(5.0610126,0,0,5.0610126,292.52755,1823.3671)"
       x1="45.873314"
       y1="-307.87781"
       x2="162.47327"
       y2="-307.87781" />
    <linearGradient
       inkscape:collect="always"
       xlink:href="#linearGradient4453"
       id="linearGradient4371"
       gradientUnits="userSpaceOnUse"
       gradientTransform="matrix(5.0610126,0,0,5.0610126,292.52755,1823.3671)"
       x1="45.873314"
       y1="-307.87781"
       x2="162.47327"
       y2="-307.87781" />
    <linearGradient
       inkscape:collect="always"
       xlink:href="#linearGradient4453"
       id="linearGradient4373"
       gradientUnits="userSpaceOnUse"
       gradientTransform="matrix(5.0610126,0,0,5.0610126,292.52755,1823.3671)"
       x1="45.873314"
       y1="-307.87781"
       x2="162.47327"
       y2="-307.87781" />
    <linearGradient
       inkscape:collect="always"
       xlink:href="#linearGradient4453"
       id="linearGradient4375"
       gradientUnits="userSpaceOnUse"
       gradientTransform="matrix(5.0610126,0,0,5.0610126,292.52755,1823.3671)"
       x1="45.873314"
       y1="-307.87781"
       x2="162.47327"
       y2="-307.87781" />
    <linearGradient
       inkscape:collect="always"
       xlink:href="#linearGradient4453"
       id="linearGradient4377"
       gradientUnits="userSpaceOnUse"
       gradientTransform="matrix(5.0610126,0,0,5.0610126,292.52755,1823.3671)"
       x1="45.873314"
       y1="-307.87781"
       x2="162.47327"
       y2="-307.87781" />
    <linearGradient
       inkscape:collect="always"
       xlink:href="#linearGradient4453"
       id="linearGradient4379"
       gradientUnits="userSpaceOnUse"
       gradientTransform="matrix(5.0610126,0,0,5.0610126,292.52755,1823.3671)"
       x1="45.873314"
       y1="-307.87781"
       x2="162.47327"
       y2="-307.87781" />
    <linearGradient
       inkscape:collect="always"
       xlink:href="#linearGradient4453"
       id="linearGradient4381"
       gradientUnits="userSpaceOnUse"
       gradientTransform="matrix(5.0610126,0,0,5.0610126,292.52755,1823.3671)"
       x1="45.873314"
       y1="-307.87781"
       x2="162.47327"
       y2="-307.87781" />
    <linearGradient
       inkscape:collect="always"
       xlink:href="#linearGradient4453"
       id="linearGradient4383"
       gradientUnits="userSpaceOnUse"
       gradientTransform="matrix(5.0610126,0,0,5.0610126,292.52755,1823.3671)"
       x1="45.873314"
       y1="-307.87781"
       x2="162.47327"
       y2="-307.87781" />
    <linearGradient
       inkscape:collect="always"
       xlink:href="#linearGradient4453"
       id="linearGradient4385"
       gradientUnits="userSpaceOnUse"
       gradientTransform="matrix(5.0610126,0,0,5.0610126,292.52755,1823.3671)"
       x1="45.873314"
       y1="-307.87781"
       x2="162.47327"
       y2="-307.87781" />
    <linearGradient
       inkscape:collect="always"
       xlink:href="#linearGradient4453"
       id="linearGradient4387"
       gradientUnits="userSpaceOnUse"
       gradientTransform="matrix(5.0610126,0,0,5.0610126,292.52755,1823.3671)"
       x1="45.873314"
       y1="-307.87781"
       x2="162.47327"
       y2="-307.87781" />
    <linearGradient
       inkscape:collect="always"
       xlink:href="#linearGradient4453"
       id="linearGradient4389"
       gradientUnits="userSpaceOnUse"
       gradientTransform="matrix(5.0610126,0,0,5.0610126,292.52755,1823.3671)"
       x1="45.873314"
       y1="-307.87781"
       x2="162.47327"
       y2="-307.87781" />
    <linearGradient
       inkscape:collect="always"
       xlink:href="#linearGradient4453"
       id="linearGradient4391"
       gradientUnits="userSpaceOnUse"
       gradientTransform="matrix(5.0610126,0,0,5.0610126,292.52755,1823.3671)"
       x1="45.873314"
       y1="-307.87781"
       x2="162.47327"
       y2="-307.87781" />
    <linearGradient
       inkscape:collect="always"
       xlink:href="#linearGradient4453"
       id="linearGradient4393"
       gradientUnits="userSpaceOnUse"
       gradientTransform="matrix(5.0610126,0,0,5.0610126,292.52755,1823.3671)"
       x1="45.873314"
       y1="-307.87781"
       x2="162.47327"
       y2="-307.87781" />
    <linearGradient
       inkscape:collect="always"
       xlink:href="#linearGradient4453"
       id="linearGradient4395"
       gradientUnits="userSpaceOnUse"
       gradientTransform="matrix(5.0610126,0,0,5.0610126,292.52755,1823.3671)"
       x1="45.873314"
       y1="-307.87781"
       x2="162.47327"
       y2="-307.87781" />
    <linearGradient
       inkscape:collect="always"
       xlink:href="#linearGradient4453"
       id="linearGradient4397"
       gradientUnits="userSpaceOnUse"
       gradientTransform="matrix(5.0610126,0,0,5.0610126,292.52755,1823.3671)"
       x1="45.873314"
       y1="-307.87781"
       x2="162.47327"
       y2="-307.87781" />
    <linearGradient
       inkscape:collect="always"
       xlink:href="#linearGradient4453"
       id="linearGradient4399"
       gradientUnits="userSpaceOnUse"
       gradientTransform="matrix(5.0610126,0,0,5.0610126,292.52755,1823.3671)"
       x1="45.873314"
       y1="-307.87781"
       x2="162.47327"
       y2="-307.87781" />
    <linearGradient
       inkscape:collect="always"
       xlink:href="#linearGradient4453"
       id="linearGradient4401"
       gradientUnits="userSpaceOnUse"
       gradientTransform="matrix(5.0610126,0,0,5.0610126,292.52755,1823.3671)"
       x1="45.873314"
       y1="-307.87781"
       x2="162.47327"
       y2="-307.87781" />
  </defs>
  <sodipodi:namedview
     id="base"
     pagecolor="#ffffff"
     bordercolor="#666666"
     borderopacity="1.0"
     inkscape:pageopacity="0.0"
     inkscape:pageshadow="2"
     inkscape:zoom="0.98994949"
     inkscape:cx="64.252509"
     inkscape:cy="-51.302803"
     inkscape:document-units="px"
     inkscape:current-layer="layer1"
     showgrid="false"
     fit-margin-top="0"
     fit-margin-left="0"
     fit-margin-right="0"
     fit-margin-bottom="0"
     inkscape:window-width="1920"
     inkscape:window-height="1107"
     inkscape:window-x="0"
     inkscape:window-y="25"
     inkscape:window-maximized="1" />
  <metadata
     id="metadata4196">
    <rdf:RDF>
      <cc:Work
         rdf:about="">
        <dc:format>image/svg+xml</dc:format>
        <dc:type
           rdf:resource="http://purl.org/dc/dcmitype/StillImage" />
        <dc:title></dc:title>
      </cc:Work>
    </rdf:RDF>
  </metadata>
  <g
     inkscape:label="Layer 1"
     inkscape:groupmode="layer"
     id="layer1"
     transform="translate(-257.88254,-262.32327)">
    <path
       inkscape:connector-curvature="0"
       id="path4148"
       style="font-style:normal;font-variant:normal;font-weight:600;font-stretch:normal;font-size:medium;line-height:125%;font-family:Bungee;-inkscape-font-specification:'Bungee Semi-Bold';letter-spacing:0px;word-spacing:0px;fill:#00356b;fill-opacity:1;stroke:none;stroke-width:1px;stroke-linecap:butt;stroke-linejoin:miter;stroke-opacity:1"
       d="m 268.69017,349.3912 c 1.41461,0 2.03704,-0.62242 2.03704,-2.03704 l 0,-9.39302 6.50722,0 c 10.29837,0 13.35393,-4.47017 13.35393,-11.03397 l 0,-7.24281 c 0,-6.5638 -3.05556,-11.03397 -13.35393,-11.03397 l -17.31485,0 c -1.41461,0 -2.03704,0.62243 -2.03704,2.03704 l 0,36.66673 c 0,1.41462 0.62243,2.03704 2.03704,2.03704 l 8.77059,0 z m 7.75207,-16.23974 -11.6564,0 0,11.14714 -0.56584,0 0,-30.55561 12.22224,0 c 7.12965,0 8.48767,3.2819 8.48767,7.69549 l 0,4.18725 c 0,4.41359 -1.35802,7.52573 -8.48767,7.52573 z m -11.6564,-0.56584 11.6564,0 c 6.67697,0 7.92183,-2.88581 7.92183,-6.95989 l 0,-4.18725 c 0,-4.07408 -1.24486,-7.12964 -7.92183,-7.12964 l -11.6564,0 0,18.27678 z m 5.8282,-13.35394 5.09261,0 c 2.20679,0 2.65946,1.30145 2.65946,2.77264 l 0,2.99898 c 0,1.4712 -0.45267,2.77264 -2.65946,2.77264 l -5.09261,0 0,-8.54426 z" />
    <path
       inkscape:connector-curvature="0"
       id="path4150"
       style="font-style:normal;font-variant:normal;font-weight:600;font-stretch:normal;font-size:medium;line-height:125%;font-family:Bungee;-inkscape-font-specification:'Bungee Semi-Bold';letter-spacing:0px;word-spacing:0px;fill:#00356b;fill-opacity:1;stroke:none;stroke-width:1px;stroke-linecap:butt;stroke-linejoin:miter;stroke-opacity:1"
       d="m 315.46519,314.30884 -12.33541,0 0,16.35291 12.33541,0 c 4.69651,0 5.88478,-2.31997 5.88478,-6.50722 l 0,-3.96091 c 0,-3.50824 -1.86728,-5.88478 -5.88478,-5.88478 z m -6.22429,4.52675 4.24383,0 c 1.98046,0 2.48972,1.13169 2.48972,2.65947 l 0,1.92388 c 0,1.52778 -0.50926,2.65947 -2.48972,2.65947 l -4.24383,0 0,-7.24282 z m -6.11112,25.46301 -0.56585,0 0,-30.55561 12.90126,0 c 4.41359,0 6.45063,2.71606 6.45063,6.45063 l 0,3.90433 c 0,3.45165 -0.67902,5.71503 -3.39507,6.5638 l 0.62243,0 c 4.63993,0 6.84672,2.09362 6.84672,6.05453 l 0,7.58232 -0.56584,0 0,-7.58232 c 0,-3.73457 -1.98046,-5.54527 -6.28088,-5.54527 l -16.0134,0 0,13.12759 z m 4.07408,5.0926 c 1.41461,0 2.03704,-0.62242 2.03704,-2.03704 l 0,-11.09055 7.92182,0 c 1.58437,0 2.15021,0.7356 2.15021,2.43313 l 0,8.65742 c 0,1.41462 0.62243,2.03704 2.03704,2.03704 l 8.7706,0 c 1.41461,0 2.03704,-0.62242 2.03704,-2.03704 l 0,-11.9959 c 0,-4.7531 -2.71606,-7.75207 -6.84672,-8.20475 2.37654,-1.01852 3.16873,-3.2819 3.16873,-6.45063 l 0,-2.60288 c 0,-5.60187 -2.65947,-9.44961 -11.14714,-9.44961 l -18.84263,0 c -1.41461,0 -2.03704,0.62243 -2.03704,2.03704 l 0,36.66673 c 0,1.41462 0.62243,2.03704 2.03704,2.03704 l 8.71401,0 z" />
    <path
       inkscape:connector-curvature="0"
       id="path4152"
       style="font-style:normal;font-variant:normal;font-weight:600;font-stretch:normal;font-size:medium;line-height:125%;font-family:Bungee;-inkscape-font-specification:'Bungee Semi-Bold';letter-spacing:0px;word-spacing:0px;fill:#00356b;fill-opacity:1;stroke:none;stroke-width:1px;stroke-linecap:butt;stroke-linejoin:miter;stroke-opacity:1"
       d="m 339.58079,349.3912 24.10498,0 c 1.41461,0 2.03704,-0.62242 2.03704,-2.03704 l 0,-6.73355 c 0,-1.41461 -0.62243,-2.03704 -2.03704,-2.03704 l -5.48869,0 0,-19.01238 5.48869,0 c 1.41461,0 2.03704,-0.62243 2.03704,-2.03704 l 0,-6.84672 c 0,-1.41461 -0.62243,-2.03704 -2.03704,-2.03704 l -24.10498,0 c -1.41461,0 -2.03704,0.62243 -2.03704,2.03704 l 0,6.84672 c 0,1.41461 0.62243,2.03704 2.03704,2.03704 l 5.60186,0 0,19.01238 -5.60186,0 c -1.41461,0 -2.03704,0.62243 -2.03704,2.03704 l 0,6.73355 c 0,1.41462 0.62243,2.03704 2.03704,2.03704 z m 21.04942,-5.0926 -17.99386,0 0,-0.56584 8.77059,0 0,-29.42392 -8.77059,0 0,-0.56585 17.99386,0 0,0.56585 -8.65743,0 0,29.42392 8.65743,0 0,0.56584 z" />
    <path
       inkscape:connector-curvature="0"
       id="path4154"
       style="font-style:normal;font-variant:normal;font-weight:600;font-stretch:normal;font-size:medium;line-height:125%;font-family:Bungee;-inkscape-font-specification:'Bungee Semi-Bold';letter-spacing:0px;word-spacing:0px;fill:#00356b;fill-opacity:1;stroke:none;stroke-width:1px;stroke-linecap:butt;stroke-linejoin:miter;stroke-opacity:1"
       d="m 396.8142,349.3912 c 1.47119,0 2.31996,-0.45267 2.8858,-1.86728 l 5.54528,-13.8632 c 1.35803,-3.39506 1.8107,-4.47017 1.8107,-8.03499 l 0,-14.9383 c 0,-1.41461 -0.56584,-2.03704 -2.03704,-2.03704 l -8.88376,0 c -1.41461,0 -2.03704,0.62243 -2.03704,2.03704 l 0,15.56073 c 0,0.79218 -0.16975,1.47119 -0.45267,2.31996 l -2.65947,7.97841 c -0.22634,0.7356 -0.45268,0.96194 -1.07511,0.96194 l -0.62243,0 c -0.62243,0 -0.84876,-0.22634 -1.0751,-0.96194 l -2.65947,-7.92182 c -0.28292,-0.84877 -0.45268,-1.52778 -0.45268,-2.31997 l 0,-15.61731 c 0,-1.41461 -0.79218,-2.03704 -2.20679,-2.03704 l -8.99693,0 c -1.41461,0 -2.03704,0.62243 -2.03704,2.03704 l 0,14.9383 c 0,3.56482 0.45267,4.63993 1.8107,8.03499 l 5.54528,13.8632 c 0.56584,1.41461 1.41461,1.86728 2.88581,1.86728 l 14.71196,0 z m -18.55971,-35.64821 0.56585,0 0,12.22225 c 0,1.98045 0.28292,3.73457 0.90535,5.26235 l 3.73457,9.05352 c 0.79218,1.98045 1.41461,3.45165 3.56482,3.45165 l 4.97944,0 c 2.15021,0 2.77264,-1.4712 3.56482,-3.45165 l 3.73457,-9.05352 c 0.62243,-1.52778 0.90535,-3.2819 0.90535,-5.26235 l 0,-12.22225 0.56585,0 0,12.22225 c 0,2.09362 -0.22634,3.84774 -0.90535,5.48869 l -3.73458,9.05351 c -0.90535,2.2068 -1.75412,3.79116 -4.13066,3.79116 l -4.97944,0 c -2.37654,0 -3.22531,-1.58436 -4.13066,-3.79116 l -3.73458,-9.05351 c -0.67901,-1.64095 -0.90535,-3.39507 -0.90535,-5.48869 l 0,-12.22225 z" />
    <path
       inkscape:connector-curvature="0"
       id="path4156"
       style="font-style:normal;font-variant:normal;font-weight:600;font-stretch:normal;font-size:medium;line-height:125%;font-family:Bungee;-inkscape-font-specification:'Bungee Semi-Bold';letter-spacing:0px;word-spacing:0px;fill:#00356b;fill-opacity:1;stroke:none;stroke-width:1px;stroke-linecap:butt;stroke-linejoin:miter;stroke-opacity:1"
       d="m 419.20485,332.24611 0,1.75412 22.06795,0 0,-1.75412 c 0,-2.03704 -0.33951,-3.73457 -0.90536,-5.26235 l -3.90432,-9.22327 c -0.84877,-1.98046 -1.4712,-3.45165 -3.56483,-3.45165 l -5.54527,0 c -2.26338,0 -2.88581,1.47119 -3.62141,3.39506 l -3.6214,9.27986 c -0.56585,1.52778 -0.90536,3.22531 -0.90536,5.26235 z m 9.05352,-11.71298 c 0.28292,-0.67902 0.62243,-0.96194 1.0751,-0.96194 l 1.41461,0 c 0.45268,0 0.79219,0.28292 1.07511,0.96194 l 2.65947,8.60084 -8.88376,0 2.65947,-8.60084 z m 13.01443,23.76547 0,-9.73253 -22.06795,0 0,9.73253 -0.56584,0 0,-12.05249 c 0,-2.09362 0.33951,-3.84774 0.96194,-5.48869 l 3.6214,-9.27985 c 0.84877,-2.09363 1.52778,-3.73458 4.13067,-3.73458 l 5.54527,0 c 2.48972,0 3.16873,1.58437 4.07409,3.79116 l 3.90432,9.22327 c 0.62243,1.64095 0.96194,3.39507 0.96194,5.48869 l 0,12.05249 -0.56584,0 z m -16.23975,3.05556 0,-7.92182 10.01545,0 0,7.92182 c 0,1.41462 0.67902,2.03704 2.2068,2.03704 l 8.54425,0 c 1.41461,0 2.03704,-0.62242 2.03704,-2.03704 l 0,-14.93829 c 0,-2.26338 -0.67901,-5.09261 -2.20679,-9.05352 l -4.92285,-12.84467 c -0.45267,-1.30145 -1.35803,-1.86729 -2.82922,-1.86729 l -15.22122,0 c -1.52778,0 -2.43314,0.56584 -2.88581,1.86729 l -4.92285,12.84467 c -1.52778,3.96091 -2.20679,6.79014 -2.20679,9.05352 l 0,14.93829 c 0,1.41462 0.62243,2.03704 2.03704,2.03704 l 8.31791,0 c 1.41461,0 2.03704,-0.62242 2.03704,-2.03704 z" />
    <path
       inkscape:connector-curvature="0"
       id="path4158"
       style="font-style:normal;font-variant:normal;font-weight:600;font-stretch:normal;font-size:medium;line-height:125%;font-family:Bungee;-inkscape-font-specification:'Bungee Semi-Bold';letter-spacing:0px;word-spacing:0px;fill:#00356b;fill-opacity:1;stroke:none;stroke-width:1px;stroke-linecap:butt;stroke-linejoin:miter;stroke-opacity:1"
       d="m 481.92696,349.3912 c 1.41461,0 2.03704,-0.62242 2.03704,-2.03704 l 0,-6.73355 c 0,-1.41461 -0.62243,-2.03704 -2.03704,-2.03704 l -11.37348,0 c -2.37655,0 -3.45165,-0.84876 -3.45165,-2.71605 l 0,-13.4671 c 0,-1.92388 1.0751,-2.82923 3.45165,-2.82923 l 11.37348,0 c 1.41461,0 2.03704,-0.62243 2.03704,-2.03704 l 0,-6.84672 c 0,-1.41461 -0.62243,-2.03704 -2.03704,-2.03704 l -13.80661,0 c -9.50619,0 -13.91978,3.67799 -13.91978,11.59982 l 0,17.59776 c 0,7.86524 4.41359,11.54323 13.91978,11.54323 l 13.80661,0 z m -3.11215,-5.65844 0,0.56584 -9.4496,0 c -7.35598,0 -9.05352,-2.03704 -9.05352,-7.29939 l 0,-15.84365 c 0,-5.37553 1.8107,-7.41257 9.05352,-7.41257 l 9.4496,0 0,0.56585 -9.4496,0 c -6.67697,0 -8.48767,1.8107 -8.48767,6.84672 l 0,15.84365 c 0,4.92285 1.69753,6.73355 8.48767,6.73355 l 9.4496,0 z" />
    <path
       inkscape:connector-curvature="0"
       id="path4160"
       style="font-style:normal;font-variant:normal;font-weight:600;font-stretch:normal;font-size:medium;line-height:125%;font-family:Bungee;-inkscape-font-specification:'Bungee Semi-Bold';letter-spacing:0px;word-spacing:0px;fill:#00356b;fill-opacity:1;stroke:none;stroke-width:1px;stroke-linecap:butt;stroke-linejoin:miter;stroke-opacity:1"
       d="m 511.06266,349.3912 c 1.41461,0 2.03704,-0.62242 2.03704,-2.03704 l 0,-7.18622 8.60084,-11.6564 c 1.69754,-2.31997 2.15021,-3.45166 2.15021,-6.95989 l 0,-10.86422 c 0,-1.41461 -0.62243,-2.03704 -2.03704,-2.03704 l -8.43108,0 c -1.41462,0 -2.03704,0.62243 -2.03704,2.03704 l 0,9.27985 c 0,0.79219 0,1.58437 -0.50927,2.37655 l -2.60288,4.07408 c -0.39609,0.67902 -0.7356,0.96194 -1.35803,0.96194 l -0.56584,0 c -0.62243,0 -0.96194,-0.28292 -1.35803,-0.96194 l -2.60288,-4.07408 c -0.50927,-0.79218 -0.50927,-1.58436 -0.50927,-2.37655 l 0,-9.27985 c 0,-1.41461 -0.62242,-2.03704 -2.03704,-2.03704 l -8.714,0 c -1.41462,0 -2.03704,0.62243 -2.03704,2.03704 l 0,10.86422 c 0,3.50823 0.39609,4.63992 2.15021,6.95989 l 8.65742,11.59981 0,7.24281 c 0,1.41462 0.56584,2.03704 2.03704,2.03704 l 9.16668,0 z m -3.90433,-14.76854 -0.39609,0 0,9.67594 -0.56584,0 0,-9.67594 -0.56585,0 c -1.64095,0 -2.8858,-0.67901 -4.13066,-2.37655 l -5.48869,-7.6389 c -0.84877,-1.13169 -0.84877,-2.71606 -0.84877,-4.357 l 0,-6.50722 0.56584,0 0,6.50722 c 0,1.58436 0.0566,2.99897 0.79219,4.13066 l 5.48869,7.6389 c 1.01852,1.52778 2.31996,2.03704 3.6214,2.03704 l 1.52778,0 c 1.41462,0 2.54631,-0.56584 3.67799,-2.03704 l 5.65845,-7.6389 c 0.79218,-1.01852 0.79218,-2.5463 0.79218,-4.13066 l 0,-6.50722 0.56585,0 0,6.50722 c 0,1.64094 0.0566,3.16873 -0.84877,4.357 l -5.65844,7.6389 c -1.24486,1.64095 -2.43314,2.37655 -4.18726,2.37655 z" />
    <path
       inkscape:connector-curvature="0"
       id="path4162"
       style="font-style:normal;font-weight:normal;font-size:medium;line-height:125%;font-family:Sans;letter-spacing:0px;word-spacing:0px;fill:#286dc0;fill-opacity:1;stroke:none;stroke-width:1px;stroke-linecap:butt;stroke-linejoin:miter;stroke-opacity:1"
       d="m 573.30115,349.3912 c 1.41461,0 2.03704,-0.62242 2.03704,-2.03704 l 0,-17.8241 c 0,-1.41461 -0.62243,-2.03704 -2.03704,-2.03704 l -8.20475,0 c -1.41461,0 -2.03704,0.62243 -2.03704,2.03704 l 0,9.16668 -7.75207,0 0,-28.00931 c 0,-1.41461 -0.62243,-2.03704 -2.03704,-2.03704 l -8.77059,0 c -1.41461,0 -2.03704,0.62243 -2.03704,2.03704 l 0,36.66673 c 0,1.41462 0.62243,2.03704 2.03704,2.03704 l 28.80149,0 z m -24.67083,-5.0926 0,-30.55561 0.56585,0 0,29.98977 19.69139,0 0,-11.14714 0.56585,0 0,11.71298 -20.82309,0 z" />
    <path
       inkscape:connector-curvature="0"
       id="path4164"
       style="font-style:normal;font-weight:normal;font-size:medium;line-height:125%;font-family:Sans;letter-spacing:0px;word-spacing:0px;fill:#286dc0;fill-opacity:1;stroke:none;stroke-width:1px;stroke-linecap:butt;stroke-linejoin:miter;stroke-opacity:1"
       d="m 587.52152,332.24611 0,1.75412 22.06794,0 0,-1.75412 c 0,-2.03704 -0.33951,-3.73457 -0.90535,-5.26235 l -3.90433,-9.22327 c -0.84877,-1.98046 -1.47119,-3.45165 -3.56482,-3.45165 l -5.54528,0 c -2.26338,0 -2.88581,1.47119 -3.6214,3.39506 l -3.62141,9.27986 c -0.56584,1.52778 -0.90535,3.22531 -0.90535,5.26235 z m 9.05351,-11.71298 c 0.28293,-0.67902 0.62243,-0.96194 1.07511,-0.96194 l 1.41461,0 c 0.45268,0 0.79218,0.28292 1.07511,0.96194 l 2.65947,8.60084 -8.88377,0 2.65947,-8.60084 z m 13.01443,23.76547 0,-9.73253 -22.06794,0 0,9.73253 -0.56584,0 0,-12.05249 c 0,-2.09362 0.3395,-3.84774 0.96193,-5.48869 l 3.62141,-9.27985 c 0.84876,-2.09363 1.52778,-3.73458 4.13066,-3.73458 l 5.54528,0 c 2.48972,0 3.16873,1.58437 4.07408,3.79116 l 3.90433,9.22327 c 0.62243,1.64095 0.96194,3.39507 0.96194,5.48869 l 0,12.05249 -0.56585,0 z m -16.23974,3.05556 0,-7.92182 10.01545,0 0,7.92182 c 0,1.41462 0.67901,2.03704 2.20679,2.03704 l 8.54426,0 c 1.41461,0 2.03704,-0.62242 2.03704,-2.03704 l 0,-14.93829 c 0,-2.26338 -0.67901,-5.09261 -2.2068,-9.05352 l -4.92284,-12.84467 c -0.45268,-1.30145 -1.35803,-1.86729 -2.82923,-1.86729 l -15.22122,0 c -1.52778,0 -2.43313,0.56584 -2.88581,1.86729 l -4.92284,12.84467 c -1.52778,3.96091 -2.2068,6.79014 -2.2068,9.05352 l 0,14.93829 c 0,1.41462 0.62243,2.03704 2.03704,2.03704 l 8.31792,0 c 1.41461,0 2.03704,-0.62242 2.03704,-2.03704 z" />
    <path
       inkscape:connector-curvature="0"
       id="path4166"
       style="font-style:normal;font-weight:normal;font-size:medium;line-height:125%;font-family:Sans;letter-spacing:0px;word-spacing:0px;fill:#286dc0;fill-opacity:1;stroke:none;stroke-width:1px;stroke-linecap:butt;stroke-linejoin:miter;stroke-opacity:1"
       d="m 646.90515,349.3912 c 7.52574,0 10.97739,-2.94239 10.97739,-9.27985 l 0,-5.20577 c 0,-5.54528 -2.26338,-8.31791 -7.12964,-8.77059 2.26338,-0.96194 3.33848,-2.94239 3.33848,-6.11112 l 0,-2.71606 c 0,-5.94137 -3.45165,-8.65742 -10.86422,-8.65742 l -18.05044,0 c -1.41461,0 -2.03704,0.62243 -2.03704,2.03704 l 0,36.66673 c 0,1.41462 0.62243,2.03704 2.03704,2.03704 l 21.72843,0 z m -17.48459,-5.0926 0,-30.55561 11.48664,0 c 6.28088,0 7.41257,2.71606 7.41257,5.99796 l 0,3.6214 c 0,2.26338 -0.39609,4.30042 -3.62141,5.14919 6.28088,0 7.35598,2.77264 7.35598,6.50721 l 0,3.62141 c 0,3.33848 -1.0751,5.65844 -7.41256,5.65844 l -15.22122,0 z m 11.48664,-29.98976 -10.9208,0 0,14.2027 10.9208,0 c 6.22429,0 6.84672,-2.43313 6.84672,-5.14919 l 0,-3.6214 c 0,-3.05557 -1.13169,-5.43211 -6.84672,-5.43211 z m -5.03602,3.96091 4.80968,0 c 1.4712,0 2.15021,0.7356 2.15021,2.26338 l 0,1.58436 c 0,1.52778 -0.67901,2.26338 -2.15021,2.26338 l -4.80968,0 0,-6.11112 z m 8.82718,10.80763 -14.71196,0 0,14.65538 14.65538,0 c 5.65844,0 6.84672,-1.98046 6.84672,-5.0926 l 0,-3.62141 c 0,-3.39507 -1.07511,-5.94137 -6.79014,-5.94137 z m -8.82718,4.0175 7.35598,0 c 1.4712,0 2.15021,0.67901 2.15021,2.20679 l 0,2.2068 c 0,1.52778 -0.67901,2.26338 -2.15021,2.26338 l -7.35598,0 0,-6.67697 z" />
    <path
       inkscape:connector-curvature="0"
       id="path4169"
       style="font-style:normal;font-weight:normal;font-size:22.60485649px;line-height:125%;font-family:Sans;letter-spacing:0px;word-spacing:0px;fill:url(#linearGradient4291);fill-opacity:1;stroke:none;stroke-width:1px;stroke-linecap:butt;stroke-linejoin:miter;stroke-opacity:1"
       d="m 263.73212,264.08927 q -1.72185,0 -2.59382,1.69978 -0.86092,1.68874 -0.86092,5.0883 0,3.38852 0.86092,5.0883 0.87197,1.68875 2.59382,1.68875 1.73289,0 2.59382,-1.68875 0.87197,-1.69978 0.87197,-5.0883 0,-3.39956 -0.87197,-5.0883 -0.86093,-1.69978 -2.59382,-1.69978 z m 0,-1.766 q 2.77042,0 4.22738,2.19647 1.46799,2.18543 1.46799,6.35761 0,4.16115 -1.46799,6.35762 -1.45696,2.18543 -4.22738,2.18543 -2.77042,0 -4.23841,-2.18543 -1.45695,-2.19647 -1.45695,-6.35762 0,-4.17218 1.45695,-6.35761 1.46799,-2.19647 4.23841,-2.19647 z" />
    <path
       inkscape:connector-curvature="0"
       id="path4171"
       style="font-style:normal;font-weight:normal;font-size:22.60485649px;line-height:125%;font-family:Sans;letter-spacing:0px;word-spacing:0px;fill:url(#linearGradient4293);fill-opacity:1;stroke:none;stroke-width:1px;stroke-linecap:butt;stroke-linejoin:miter;stroke-opacity:1"
       d="m 273.74316,277.22393 3.64238,0 0,-12.57174 -3.96247,0.7947 0,-2.03091 3.9404,-0.7947 2.22958,0 0,14.60265 3.64238,0 0,1.87638 -9.49227,0 0,-1.87638 z" />
    <path
       inkscape:connector-curvature="0"
       id="path4173"
       style="font-style:normal;font-weight:normal;font-size:22.60485649px;line-height:125%;font-family:Sans;letter-spacing:0px;word-spacing:0px;fill:url(#linearGradient4295);fill-opacity:1;stroke:none;stroke-width:1px;stroke-linecap:butt;stroke-linejoin:miter;stroke-opacity:1"
       d="m 288.1361,277.22393 3.64238,0 0,-12.57174 -3.96247,0.7947 0,-2.03091 3.94039,-0.7947 2.22959,0 0,14.60265 3.64238,0 0,1.87638 -9.49227,0 0,-1.87638 z" />
    <path
       inkscape:connector-curvature="0"
       id="path4175"
       style="font-style:normal;font-weight:normal;font-size:22.60485649px;line-height:125%;font-family:Sans;letter-spacing:0px;word-spacing:0px;fill:url(#linearGradient4297);fill-opacity:1;stroke:none;stroke-width:1px;stroke-linecap:butt;stroke-linejoin:miter;stroke-opacity:1"
       d="m 306.91093,264.08927 q -1.72186,0 -2.59382,1.69978 -0.86093,1.68874 -0.86093,5.0883 0,3.38852 0.86093,5.0883 0.87196,1.68875 2.59382,1.68875 1.73289,0 2.59382,-1.68875 0.87196,-1.69978 0.87196,-5.0883 0,-3.39956 -0.87196,-5.0883 -0.86093,-1.69978 -2.59382,-1.69978 z m 0,-1.766 q 2.77042,0 4.22737,2.19647 1.46799,2.18543 1.46799,6.35761 0,4.16115 -1.46799,6.35762 -1.45695,2.18543 -4.22737,2.18543 -2.77042,0 -4.23841,-2.18543 -1.45696,-2.19647 -1.45696,-6.35762 0,-4.17218 1.45696,-6.35761 1.46799,-2.19647 4.23841,-2.19647 z" />
    <path
       inkscape:connector-curvature="0"
       id="path4177"
       style="font-style:normal;font-weight:normal;font-size:22.60485649px;line-height:125%;font-family:Sans;letter-spacing:0px;word-spacing:0px;fill:url(#linearGradient4299);fill-opacity:1;stroke:none;stroke-width:1px;stroke-linecap:butt;stroke-linejoin:miter;stroke-opacity:1"
       d="m 321.30387,264.08927 q -1.72186,0 -2.59382,1.69978 -0.86093,1.68874 -0.86093,5.0883 0,3.38852 0.86093,5.0883 0.87196,1.68875 2.59382,1.68875 1.73289,0 2.59381,-1.68875 0.87197,-1.69978 0.87197,-5.0883 0,-3.39956 -0.87197,-5.0883 -0.86092,-1.69978 -2.59381,-1.69978 z m 0,-1.766 q 2.77041,0 4.22737,2.19647 1.46799,2.18543 1.46799,6.35761 0,4.16115 -1.46799,6.35762 -1.45696,2.18543 -4.22737,2.18543 -2.77042,0 -4.23842,-2.18543 -1.45695,-2.19647 -1.45695,-6.35762 0,-4.17218 1.45695,-6.35761 1.468,-2.19647 4.23842,-2.19647 z" />
    <path
       inkscape:connector-curvature="0"
       id="path4179"
       style="font-style:normal;font-weight:normal;font-size:22.60485649px;line-height:125%;font-family:Sans;letter-spacing:0px;word-spacing:0px;fill:url(#linearGradient4301);fill-opacity:1;stroke:none;stroke-width:1px;stroke-linecap:butt;stroke-linejoin:miter;stroke-opacity:1"
       d="m 335.6968,264.08927 q -1.72186,0 -2.59382,1.69978 -0.86093,1.68874 -0.86093,5.0883 0,3.38852 0.86093,5.0883 0.87196,1.68875 2.59382,1.68875 1.73289,0 2.59382,-1.68875 0.87196,-1.69978 0.87196,-5.0883 0,-3.39956 -0.87196,-5.0883 -0.86093,-1.69978 -2.59382,-1.69978 z m 0,-1.766 q 2.77042,0 4.22737,2.19647 1.46799,2.18543 1.46799,6.35761 0,4.16115 -1.46799,6.35762 -1.45695,2.18543 -4.22737,2.18543 -2.77042,0 -4.23841,-2.18543 -1.45696,-2.19647 -1.45696,-6.35762 0,-4.17218 1.45696,-6.35761 1.46799,-2.19647 4.23841,-2.19647 z" />
    <path
       inkscape:connector-curvature="0"
       id="path4181"
       style="font-style:normal;font-weight:normal;font-size:22.60485649px;line-height:125%;font-family:Sans;letter-spacing:0px;word-spacing:0px;fill:url(#linearGradient4303);fill-opacity:1;stroke:none;stroke-width:1px;stroke-linecap:butt;stroke-linejoin:miter;stroke-opacity:1"
       d="m 350.08973,264.08927 q -1.72185,0 -2.59381,1.69978 -0.86093,1.68874 -0.86093,5.0883 0,3.38852 0.86093,5.0883 0.87196,1.68875 2.59381,1.68875 1.7329,0 2.59382,-1.68875 0.87197,-1.69978 0.87197,-5.0883 0,-3.39956 -0.87197,-5.0883 -0.86092,-1.69978 -2.59382,-1.69978 z m 0,-1.766 q 2.77042,0 4.22738,2.19647 1.46799,2.18543 1.46799,6.35761 0,4.16115 -1.46799,6.35762 -1.45696,2.18543 -4.22738,2.18543 -2.77041,0 -4.23841,-2.18543 -1.45695,-2.19647 -1.45695,-6.35762 0,-4.17218 1.45695,-6.35761 1.468,-2.19647 4.23841,-2.19647 z" />
    <path
       inkscape:connector-curvature="0"
       id="path4183"
       style="font-style:normal;font-weight:normal;font-size:22.60485649px;line-height:125%;font-family:Sans;letter-spacing:0px;word-spacing:0px;fill:url(#linearGradient4305);fill-opacity:1;stroke:none;stroke-width:1px;stroke-linecap:butt;stroke-linejoin:miter;stroke-opacity:1"
       d="m 360.10077,277.22393 3.64239,0 0,-12.57174 -3.96248,0.7947 0,-2.03091 3.9404,-0.7947 2.22958,0 0,14.60265 3.64239,0 0,1.87638 -9.49228,0 0,-1.87638 z" />
    <path
       inkscape:connector-curvature="0"
       id="path4185"
       style="font-style:normal;font-weight:normal;font-size:22.60485649px;line-height:125%;font-family:Sans;letter-spacing:0px;word-spacing:0px;fill:url(#linearGradient4307);fill-opacity:1;stroke:none;stroke-width:1px;stroke-linecap:butt;stroke-linejoin:miter;stroke-opacity:1"
       d="m 378.87561,264.08927 q -1.72186,0 -2.59382,1.69978 -0.86093,1.68874 -0.86093,5.0883 0,3.38852 0.86093,5.0883 0.87196,1.68875 2.59382,1.68875 1.73289,0 2.59382,-1.68875 0.87196,-1.69978 0.87196,-5.0883 0,-3.39956 -0.87196,-5.0883 -0.86093,-1.69978 -2.59382,-1.69978 z m 0,-1.766 q 2.77042,0 4.22737,2.19647 1.46799,2.18543 1.46799,6.35761 0,4.16115 -1.46799,6.35762 -1.45695,2.18543 -4.22737,2.18543 -2.77042,0 -4.23841,-2.18543 -1.45696,-2.19647 -1.45696,-6.35762 0,-4.17218 1.45696,-6.35761 1.46799,-2.19647 4.23841,-2.19647 z" />
    <path
       inkscape:connector-curvature="0"
       id="path4187"
       style="font-style:normal;font-weight:normal;font-size:22.60485649px;line-height:125%;font-family:Sans;letter-spacing:0px;word-spacing:0px;fill:url(#linearGradient4309);fill-opacity:1;stroke:none;stroke-width:1px;stroke-linecap:butt;stroke-linejoin:miter;stroke-opacity:1"
       d="m 388.88665,277.22393 3.64238,0 0,-12.57174 -3.96247,0.7947 0,-2.03091 3.9404,-0.7947 2.22958,0 0,14.60265 3.64238,0 0,1.87638 -9.49227,0 0,-1.87638 z" />
    <path
       inkscape:connector-curvature="0"
       id="path4189"
       style="font-style:normal;font-weight:normal;font-size:22.60485649px;line-height:125%;font-family:Sans;letter-spacing:0px;word-spacing:0px;fill:url(#linearGradient4311);fill-opacity:1;stroke:none;stroke-width:1px;stroke-linecap:butt;stroke-linejoin:miter;stroke-opacity:1"
       d="m 403.27958,277.22393 3.64238,0 0,-12.57174 -3.96247,0.7947 0,-2.03091 3.94039,-0.7947 2.22959,0 0,14.60265 3.64238,0 0,1.87638 -9.49227,0 0,-1.87638 z" />
    <path
       inkscape:connector-curvature="0"
       id="path4191"
       style="font-style:normal;font-weight:normal;font-size:22.60485649px;line-height:125%;font-family:Sans;letter-spacing:0px;word-spacing:0px;fill:url(#linearGradient4313);fill-opacity:1;stroke:none;stroke-width:1px;stroke-linecap:butt;stroke-linejoin:miter;stroke-opacity:1"
       d="m 417.67252,277.22393 3.64238,0 0,-12.57174 -3.96247,0.7947 0,-2.03091 3.9404,-0.7947 2.22958,0 0,14.60265 3.64238,0 0,1.87638 -9.49227,0 0,-1.87638 z" />
    <path
       inkscape:connector-curvature="0"
       id="path4193"
       style="font-style:normal;font-weight:normal;font-size:22.60485649px;line-height:125%;font-family:Sans;letter-spacing:0px;word-spacing:0px;fill:url(#linearGradient4315);fill-opacity:1;stroke:none;stroke-width:1px;stroke-linecap:butt;stroke-linejoin:miter;stroke-opacity:1"
       d="m 436.44735,264.08927 q -1.72186,0 -2.59382,1.69978 -0.86093,1.68874 -0.86093,5.0883 0,3.38852 0.86093,5.0883 0.87196,1.68875 2.59382,1.68875 1.73289,0 2.59382,-1.68875 0.87196,-1.69978 0.87196,-5.0883 0,-3.39956 -0.87196,-5.0883 -0.86093,-1.69978 -2.59382,-1.69978 z m 0,-1.766 q 2.77042,0 4.22737,2.19647 1.46799,2.18543 1.46799,6.35761 0,4.16115 -1.46799,6.35762 -1.45695,2.18543 -4.22737,2.18543 -2.77042,0 -4.23841,-2.18543 -1.45696,-2.19647 -1.45696,-6.35762 0,-4.17218 1.45696,-6.35761 1.46799,-2.19647 4.23841,-2.19647 z" />
    <path
       inkscape:connector-curvature="0"
       id="path4195"
       style="font-style:normal;font-weight:normal;font-size:22.60485649px;line-height:125%;font-family:Sans;letter-spacing:0px;word-spacing:0px;fill:url(#linearGradient4317);fill-opacity:1;stroke:none;stroke-width:1px;stroke-linecap:butt;stroke-linejoin:miter;stroke-opacity:1"
       d="m 450.84029,264.08927 q -1.72185,0 -2.59382,1.69978 -0.86092,1.68874 -0.86092,5.0883 0,3.38852 0.86092,5.0883 0.87197,1.68875 2.59382,1.68875 1.73289,0 2.59382,-1.68875 0.87197,-1.69978 0.87197,-5.0883 0,-3.39956 -0.87197,-5.0883 -0.86093,-1.69978 -2.59382,-1.69978 z m 0,-1.766 q 2.77042,0 4.22737,2.19647 1.468,2.18543 1.468,6.35761 0,4.16115 -1.468,6.35762 -1.45695,2.18543 -4.22737,2.18543 -2.77042,0 -4.23841,-2.18543 -1.45695,-2.19647 -1.45695,-6.35762 0,-4.17218 1.45695,-6.35761 1.46799,-2.19647 4.23841,-2.19647 z" />
    <path
       inkscape:connector-curvature="0"
       id="path4197"
       style="font-style:normal;font-weight:normal;font-size:22.60485649px;line-height:125%;font-family:Sans;letter-spacing:0px;word-spacing:0px;fill:url(#linearGradient4319);fill-opacity:1;stroke:none;stroke-width:1px;stroke-linecap:butt;stroke-linejoin:miter;stroke-opacity:1"
       d="m 460.85132,277.22393 3.64239,0 0,-12.57174 -3.96248,0.7947 0,-2.03091 3.9404,-0.7947 2.22958,0 0,14.60265 3.64239,0 0,1.87638 -9.49228,0 0,-1.87638 z" />
    <path
       inkscape:connector-curvature="0"
       id="path4199"
       style="font-style:normal;font-weight:normal;font-size:22.60485649px;line-height:125%;font-family:Sans;letter-spacing:0px;word-spacing:0px;fill:url(#linearGradient4321);fill-opacity:1;stroke:none;stroke-width:1px;stroke-linecap:butt;stroke-linejoin:miter;stroke-opacity:1"
       d="m 479.62617,264.08927 q -1.72186,0 -2.59382,1.69978 -0.86093,1.68874 -0.86093,5.0883 0,3.38852 0.86093,5.0883 0.87196,1.68875 2.59382,1.68875 1.73289,0 2.59381,-1.68875 0.87197,-1.69978 0.87197,-5.0883 0,-3.39956 -0.87197,-5.0883 -0.86092,-1.69978 -2.59381,-1.69978 z m 0,-1.766 q 2.77041,0 4.22737,2.19647 1.46799,2.18543 1.46799,6.35761 0,4.16115 -1.46799,6.35762 -1.45696,2.18543 -4.22737,2.18543 -2.77042,0 -4.23842,-2.18543 -1.45695,-2.19647 -1.45695,-6.35762 0,-4.17218 1.45695,-6.35761 1.468,-2.19647 4.23842,-2.19647 z" />
    <path
       inkscape:connector-curvature="0"
       id="path4201"
       style="font-style:normal;font-weight:normal;font-size:22.60485649px;line-height:125%;font-family:Sans;letter-spacing:0px;word-spacing:0px;fill:url(#linearGradient4323);fill-opacity:1;stroke:none;stroke-width:1px;stroke-linecap:butt;stroke-linejoin:miter;stroke-opacity:1"
       d="m 494.01909,264.08927 q -1.72185,0 -2.59381,1.69978 -0.86093,1.68874 -0.86093,5.0883 0,3.38852 0.86093,5.0883 0.87196,1.68875 2.59381,1.68875 1.7329,0 2.59382,-1.68875 0.87197,-1.69978 0.87197,-5.0883 0,-3.39956 -0.87197,-5.0883 -0.86092,-1.69978 -2.59382,-1.69978 z m 0,-1.766 q 2.77042,0 4.22738,2.19647 1.46799,2.18543 1.46799,6.35761 0,4.16115 -1.46799,6.35762 -1.45696,2.18543 -4.22738,2.18543 -2.77042,0 -4.23841,-2.18543 -1.45695,-2.19647 -1.45695,-6.35762 0,-4.17218 1.45695,-6.35761 1.46799,-2.19647 4.23841,-2.19647 z" />
    <path
       inkscape:connector-curvature="0"
       id="path4203"
       style="font-style:normal;font-weight:normal;font-size:22.60485649px;line-height:125%;font-family:Sans;letter-spacing:0px;word-spacing:0px;fill:url(#linearGradient4325);fill-opacity:1;stroke:none;stroke-width:1px;stroke-linecap:butt;stroke-linejoin:miter;stroke-opacity:1"
       d="m 504.03013,277.22393 3.64238,0 0,-12.57174 -3.96247,0.7947 0,-2.03091 3.94039,-0.7947 2.22958,0 0,14.60265 3.64239,0 0,1.87638 -9.49227,0 0,-1.87638 z" />
    <path
       inkscape:connector-curvature="0"
       id="path4205"
       style="font-style:normal;font-weight:normal;font-size:22.60485649px;line-height:125%;font-family:Sans;letter-spacing:0px;word-spacing:0px;fill:url(#linearGradient4327);fill-opacity:1;stroke:none;stroke-width:1px;stroke-linecap:butt;stroke-linejoin:miter;stroke-opacity:1"
       d="m 518.42307,277.22393 3.64238,0 0,-12.57174 -3.96247,0.7947 0,-2.03091 3.9404,-0.7947 2.22958,0 0,14.60265 3.64238,0 0,1.87638 -9.49227,0 0,-1.87638 z" />
    <path
       inkscape:connector-curvature="0"
       id="path4207"
       style="font-style:normal;font-weight:normal;font-size:22.60485649px;line-height:125%;font-family:Sans;letter-spacing:0px;word-spacing:0px;fill:url(#linearGradient4329);fill-opacity:1;stroke:none;stroke-width:1px;stroke-linecap:butt;stroke-linejoin:miter;stroke-opacity:1"
       d="m 537.19791,264.08927 q -1.72185,0 -2.59382,1.69978 -0.86092,1.68874 -0.86092,5.0883 0,3.38852 0.86092,5.0883 0.87197,1.68875 2.59382,1.68875 1.73289,0 2.59382,-1.68875 0.87197,-1.69978 0.87197,-5.0883 0,-3.39956 -0.87197,-5.0883 -0.86093,-1.69978 -2.59382,-1.69978 z m 0,-1.766 q 2.77042,0 4.22738,2.19647 1.46799,2.18543 1.46799,6.35761 0,4.16115 -1.46799,6.35762 -1.45696,2.18543 -4.22738,2.18543 -2.77042,0 -4.23841,-2.18543 -1.45695,-2.19647 -1.45695,-6.35762 0,-4.17218 1.45695,-6.35761 1.46799,-2.19647 4.23841,-2.19647 z" />
    <path
       inkscape:connector-curvature="0"
       id="path4209"
       style="font-style:normal;font-weight:normal;font-size:22.60485649px;line-height:125%;font-family:Sans;letter-spacing:0px;word-spacing:0px;fill:url(#linearGradient4331);fill-opacity:1;stroke:none;stroke-width:1px;stroke-linecap:butt;stroke-linejoin:miter;stroke-opacity:1"
       d="m 551.59083,264.08927 q -1.72186,0 -2.59382,1.69978 -0.86093,1.68874 -0.86093,5.0883 0,3.38852 0.86093,5.0883 0.87196,1.68875 2.59382,1.68875 1.73289,0 2.59381,-1.68875 0.87197,-1.69978 0.87197,-5.0883 0,-3.39956 -0.87197,-5.0883 -0.86092,-1.69978 -2.59381,-1.69978 z m 0,-1.766 q 2.77042,0 4.22737,2.19647 1.46799,2.18543 1.46799,6.35761 0,4.16115 -1.46799,6.35762 -1.45695,2.18543 -4.22737,2.18543 -2.77042,0 -4.23841,-2.18543 -1.45696,-2.19647 -1.45696,-6.35762 0,-4.17218 1.45696,-6.35761 1.46799,-2.19647 4.23841,-2.19647 z" />
    <path
       inkscape:connector-curvature="0"
       id="path4211"
       style="font-style:normal;font-weight:normal;font-size:22.60485649px;line-height:125%;font-family:Sans;letter-spacing:0px;word-spacing:0px;fill:url(#linearGradient4333);fill-opacity:1;stroke:none;stroke-width:1px;stroke-linecap:butt;stroke-linejoin:miter;stroke-opacity:1"
       d="m 565.98377,264.08927 q -1.72185,0 -2.59382,1.69978 -0.86093,1.68874 -0.86093,5.0883 0,3.38852 0.86093,5.0883 0.87197,1.68875 2.59382,1.68875 1.73289,0 2.59382,-1.68875 0.87196,-1.69978 0.87196,-5.0883 0,-3.39956 -0.87196,-5.0883 -0.86093,-1.69978 -2.59382,-1.69978 z m 0,-1.766 q 2.77042,0 4.22737,2.19647 1.46799,2.18543 1.46799,6.35761 0,4.16115 -1.46799,6.35762 -1.45695,2.18543 -4.22737,2.18543 -2.77042,0 -4.23841,-2.18543 -1.45695,-2.19647 -1.45695,-6.35762 0,-4.17218 1.45695,-6.35761 1.46799,-2.19647 4.23841,-2.19647 z" />
    <path
       inkscape:connector-curvature="0"
       id="path4213"
       style="font-style:normal;font-weight:normal;font-size:22.60485649px;line-height:125%;font-family:Sans;letter-spacing:0px;word-spacing:0px;fill:url(#linearGradient4335);fill-opacity:1;stroke:none;stroke-width:1px;stroke-linecap:butt;stroke-linejoin:miter;stroke-opacity:1"
       d="m 575.99482,277.22393 3.64238,0 0,-12.57174 -3.96247,0.7947 0,-2.03091 3.9404,-0.7947 2.22958,0 0,14.60265 3.64238,0 0,1.87638 -9.49227,0 0,-1.87638 z" />
    <path
       inkscape:connector-curvature="0"
       id="path4215"
       style="font-style:normal;font-weight:normal;font-size:22.60485649px;line-height:125%;font-family:Sans;letter-spacing:0px;word-spacing:0px;fill:url(#linearGradient4337);fill-opacity:1;stroke:none;stroke-width:1px;stroke-linecap:butt;stroke-linejoin:miter;stroke-opacity:1"
       d="m 590.38776,277.22393 3.64238,0 0,-12.57174 -3.96247,0.7947 0,-2.03091 3.9404,-0.7947 2.22958,0 0,14.60265 3.64238,0 0,1.87638 -9.49227,0 0,-1.87638 z" />
    <path
       inkscape:connector-curvature="0"
       id="path4217"
       style="font-style:normal;font-weight:normal;font-size:22.60485649px;line-height:125%;font-family:Sans;letter-spacing:0px;word-spacing:0px;fill:url(#linearGradient4339);fill-opacity:1;stroke:none;stroke-width:1px;stroke-linecap:butt;stroke-linejoin:miter;stroke-opacity:1"
       d="m 609.16257,264.08927 q -1.72185,0 -2.59382,1.69978 -0.86092,1.68874 -0.86092,5.0883 0,3.38852 0.86092,5.0883 0.87197,1.68875 2.59382,1.68875 1.73289,0 2.59382,-1.68875 0.87197,-1.69978 0.87197,-5.0883 0,-3.39956 -0.87197,-5.0883 -0.86093,-1.69978 -2.59382,-1.69978 z m 0,-1.766 q 2.77042,0 4.22738,2.19647 1.46799,2.18543 1.46799,6.35761 0,4.16115 -1.46799,6.35762 -1.45696,2.18543 -4.22738,2.18543 -2.77042,0 -4.23841,-2.18543 -1.45695,-2.19647 -1.45695,-6.35762 0,-4.17218 1.45695,-6.35761 1.46799,-2.19647 4.23841,-2.19647 z" />
    <path
       inkscape:connector-curvature="0"
       id="path4219"
       style="font-style:normal;font-weight:normal;font-size:22.60485649px;line-height:125%;font-family:Sans;letter-spacing:0px;word-spacing:0px;fill:url(#linearGradient4341);fill-opacity:1;stroke:none;stroke-width:1px;stroke-linecap:butt;stroke-linejoin:miter;stroke-opacity:1"
       d="m 619.17362,277.22393 3.64238,0 0,-12.57174 -3.96247,0.7947 0,-2.03091 3.9404,-0.7947 2.22958,0 0,14.60265 3.64238,0 0,1.87638 -9.49227,0 0,-1.87638 z" />
    <path
       inkscape:connector-curvature="0"
       id="path4221"
       style="font-style:normal;font-weight:normal;font-size:22.60485649px;line-height:125%;font-family:Sans;letter-spacing:0px;word-spacing:0px;fill:url(#linearGradient4343);fill-opacity:1;stroke:none;stroke-width:1px;stroke-linecap:butt;stroke-linejoin:miter;stroke-opacity:1"
       d="m 633.56656,277.22393 3.64239,0 0,-12.57174 -3.96248,0.7947 0,-2.03091 3.9404,-0.7947 2.22958,0 0,14.60265 3.64239,0 0,1.87638 -9.49228,0 0,-1.87638 z" />
    <path
       inkscape:connector-curvature="0"
       id="path4223"
       style="font-style:normal;font-weight:normal;font-size:22.60485649px;line-height:125%;font-family:Sans;letter-spacing:0px;word-spacing:0px;fill:url(#linearGradient4345);fill-opacity:1;stroke:none;stroke-width:1px;stroke-linecap:butt;stroke-linejoin:miter;stroke-opacity:1"
       d="m 652.34138,264.08927 q -1.72186,0 -2.59382,1.69978 -0.86093,1.68874 -0.86093,5.0883 0,3.38852 0.86093,5.0883 0.87196,1.68875 2.59382,1.68875 1.73289,0 2.59381,-1.68875 0.87197,-1.69978 0.87197,-5.0883 0,-3.39956 -0.87197,-5.0883 -0.86092,-1.69978 -2.59381,-1.69978 z m 0,-1.766 q 2.77041,0 4.22737,2.19647 1.46799,2.18543 1.46799,6.35761 0,4.16115 -1.46799,6.35762 -1.45696,2.18543 -4.22737,2.18543 -2.77042,0 -4.23842,-2.18543 -1.45695,-2.19647 -1.45695,-6.35762 0,-4.17218 1.45695,-6.35761 1.468,-2.19647 4.23842,-2.19647 z" />
    <path
       inkscape:connector-curvature="0"
       id="path4225"
       style="font-style:normal;font-weight:normal;font-size:22.60485649px;line-height:125%;font-family:Sans;letter-spacing:0px;word-spacing:0px;fill:url(#linearGradient4347);fill-opacity:1;stroke:none;stroke-width:1px;stroke-linecap:butt;stroke-linejoin:miter;stroke-opacity:1"
       d="m 263.73212,377.11356 q -1.72185,0 -2.59382,1.69978 -0.86092,1.68874 -0.86092,5.0883 0,3.38852 0.86092,5.0883 0.87197,1.68874 2.59382,1.68874 1.73289,0 2.59382,-1.68874 0.87197,-1.69978 0.87197,-5.0883 0,-3.39956 -0.87197,-5.0883 -0.86093,-1.69978 -2.59382,-1.69978 z m 0,-1.76601 q 2.77042,0 4.22738,2.19647 1.46799,2.18543 1.46799,6.35762 0,4.16114 -1.46799,6.35761 -1.45696,2.18543 -4.22738,2.18543 -2.77042,0 -4.23841,-2.18543 -1.45695,-2.19647 -1.45695,-6.35761 0,-4.17219 1.45695,-6.35762 1.46799,-2.19647 4.23841,-2.19647 z" />
    <path
       inkscape:connector-curvature="0"
       id="path4227"
       style="font-style:normal;font-weight:normal;font-size:22.60485649px;line-height:125%;font-family:Sans;letter-spacing:0px;word-spacing:0px;fill:url(#linearGradient4349);fill-opacity:1;stroke:none;stroke-width:1px;stroke-linecap:butt;stroke-linejoin:miter;stroke-opacity:1"
       d="m 278.12506,377.11356 q -1.72186,0 -2.59382,1.69978 -0.86093,1.68874 -0.86093,5.0883 0,3.38852 0.86093,5.0883 0.87196,1.68874 2.59382,1.68874 1.73289,0 2.59382,-1.68874 0.87196,-1.69978 0.87196,-5.0883 0,-3.39956 -0.87196,-5.0883 -0.86093,-1.69978 -2.59382,-1.69978 z m 0,-1.76601 q 2.77042,0 4.22737,2.19647 1.46799,2.18543 1.46799,6.35762 0,4.16114 -1.46799,6.35761 -1.45695,2.18543 -4.22737,2.18543 -2.77042,0 -4.23841,-2.18543 -1.45696,-2.19647 -1.45696,-6.35761 0,-4.17219 1.45696,-6.35762 1.46799,-2.19647 4.23841,-2.19647 z" />
    <path
       inkscape:connector-curvature="0"
       id="path4229"
       style="font-style:normal;font-weight:normal;font-size:22.60485649px;line-height:125%;font-family:Sans;letter-spacing:0px;word-spacing:0px;fill:url(#linearGradient4351);fill-opacity:1;stroke:none;stroke-width:1px;stroke-linecap:butt;stroke-linejoin:miter;stroke-opacity:1"
       d="m 292.51799,377.11356 q -1.72185,0 -2.59382,1.69978 -0.86092,1.68874 -0.86092,5.0883 0,3.38852 0.86092,5.0883 0.87197,1.68874 2.59382,1.68874 1.7329,0 2.59382,-1.68874 0.87197,-1.69978 0.87197,-5.0883 0,-3.39956 -0.87197,-5.0883 -0.86092,-1.69978 -2.59382,-1.69978 z m 0,-1.76601 q 2.77042,0 4.22738,2.19647 1.46799,2.18543 1.46799,6.35762 0,4.16114 -1.46799,6.35761 -1.45696,2.18543 -4.22738,2.18543 -2.77042,0 -4.23841,-2.18543 -1.45695,-2.19647 -1.45695,-6.35761 0,-4.17219 1.45695,-6.35762 1.46799,-2.19647 4.23841,-2.19647 z" />
    <path
       inkscape:connector-curvature="0"
       id="path4231"
       style="font-style:normal;font-weight:normal;font-size:22.60485649px;line-height:125%;font-family:Sans;letter-spacing:0px;word-spacing:0px;fill:url(#linearGradient4353);fill-opacity:1;stroke:none;stroke-width:1px;stroke-linecap:butt;stroke-linejoin:miter;stroke-opacity:1"
       d="m 302.52903,390.24821 3.64238,0 0,-12.57174 -3.96247,0.7947 0,-2.0309 3.9404,-0.7947 2.22958,0 0,14.60264 3.64238,0 0,1.87638 -9.49227,0 0,-1.87638 z" />
    <path
       inkscape:connector-curvature="0"
       id="path4233"
       style="font-style:normal;font-weight:normal;font-size:22.60485649px;line-height:125%;font-family:Sans;letter-spacing:0px;word-spacing:0px;fill:url(#linearGradient4355);fill-opacity:1;stroke:none;stroke-width:1px;stroke-linecap:butt;stroke-linejoin:miter;stroke-opacity:1"
       d="m 321.30387,377.11356 q -1.72186,0 -2.59382,1.69978 -0.86093,1.68874 -0.86093,5.0883 0,3.38852 0.86093,5.0883 0.87196,1.68874 2.59382,1.68874 1.73289,0 2.59381,-1.68874 0.87197,-1.69978 0.87197,-5.0883 0,-3.39956 -0.87197,-5.0883 -0.86092,-1.69978 -2.59381,-1.69978 z m 0,-1.76601 q 2.77041,0 4.22737,2.19647 1.46799,2.18543 1.46799,6.35762 0,4.16114 -1.46799,6.35761 -1.45696,2.18543 -4.22737,2.18543 -2.77042,0 -4.23842,-2.18543 -1.45695,-2.19647 -1.45695,-6.35761 0,-4.17219 1.45695,-6.35762 1.468,-2.19647 4.23842,-2.19647 z" />
    <path
       inkscape:connector-curvature="0"
       id="path4235"
       style="font-style:normal;font-weight:normal;font-size:22.60485649px;line-height:125%;font-family:Sans;letter-spacing:0px;word-spacing:0px;fill:url(#linearGradient4357);fill-opacity:1;stroke:none;stroke-width:1px;stroke-linecap:butt;stroke-linejoin:miter;stroke-opacity:1"
       d="m 331.3149,390.24821 3.64238,0 0,-12.57174 -3.96247,0.7947 0,-2.0309 3.9404,-0.7947 2.22958,0 0,14.60264 3.64238,0 0,1.87638 -9.49227,0 0,-1.87638 z" />
    <path
       inkscape:connector-curvature="0"
       id="path4237"
       style="font-style:normal;font-weight:normal;font-size:22.60485649px;line-height:125%;font-family:Sans;letter-spacing:0px;word-spacing:0px;fill:url(#linearGradient4359);fill-opacity:1;stroke:none;stroke-width:1px;stroke-linecap:butt;stroke-linejoin:miter;stroke-opacity:1"
       d="m 345.70784,390.24821 3.64238,0 0,-12.57174 -3.96247,0.7947 0,-2.0309 3.9404,-0.7947 2.22958,0 0,14.60264 3.64238,0 0,1.87638 -9.49227,0 0,-1.87638 z" />
    <path
       inkscape:connector-curvature="0"
       id="path4239"
       style="font-style:normal;font-weight:normal;font-size:22.60485649px;line-height:125%;font-family:Sans;letter-spacing:0px;word-spacing:0px;fill:url(#linearGradient4361);fill-opacity:1;stroke:none;stroke-width:1px;stroke-linecap:butt;stroke-linejoin:miter;stroke-opacity:1"
       d="m 364.48267,377.11356 q -1.72185,0 -2.59382,1.69978 -0.86092,1.68874 -0.86092,5.0883 0,3.38852 0.86092,5.0883 0.87197,1.68874 2.59382,1.68874 1.73289,0 2.59382,-1.68874 0.87197,-1.69978 0.87197,-5.0883 0,-3.39956 -0.87197,-5.0883 -0.86093,-1.69978 -2.59382,-1.69978 z m 0,-1.76601 q 2.77042,0 4.22737,2.19647 1.468,2.18543 1.468,6.35762 0,4.16114 -1.468,6.35761 -1.45695,2.18543 -4.22737,2.18543 -2.77042,0 -4.23841,-2.18543 -1.45695,-2.19647 -1.45695,-6.35761 0,-4.17219 1.45695,-6.35762 1.46799,-2.19647 4.23841,-2.19647 z" />
    <path
       inkscape:connector-curvature="0"
       id="path4241"
       style="font-style:normal;font-weight:normal;font-size:22.60485649px;line-height:125%;font-family:Sans;letter-spacing:0px;word-spacing:0px;fill:url(#linearGradient4363);fill-opacity:1;stroke:none;stroke-width:1px;stroke-linecap:butt;stroke-linejoin:miter;stroke-opacity:1"
       d="m 374.49371,390.24821 3.64238,0 0,-12.57174 -3.96247,0.7947 0,-2.0309 3.9404,-0.7947 2.22958,0 0,14.60264 3.64238,0 0,1.87638 -9.49227,0 0,-1.87638 z" />
    <path
       inkscape:connector-curvature="0"
       id="path4243"
       style="font-style:normal;font-weight:normal;font-size:22.60485649px;line-height:125%;font-family:Sans;letter-spacing:0px;word-spacing:0px;fill:url(#linearGradient4365);fill-opacity:1;stroke:none;stroke-width:1px;stroke-linecap:butt;stroke-linejoin:miter;stroke-opacity:1"
       d="m 388.88665,390.24821 3.64238,0 0,-12.57174 -3.96247,0.7947 0,-2.0309 3.9404,-0.7947 2.22958,0 0,14.60264 3.64238,0 0,1.87638 -9.49227,0 0,-1.87638 z" />
    <path
       inkscape:connector-curvature="0"
       id="path4245"
       style="font-style:normal;font-weight:normal;font-size:22.60485649px;line-height:125%;font-family:Sans;letter-spacing:0px;word-spacing:0px;fill:url(#linearGradient4367);fill-opacity:1;stroke:none;stroke-width:1px;stroke-linecap:butt;stroke-linejoin:miter;stroke-opacity:1"
       d="m 403.27958,390.24821 3.64238,0 0,-12.57174 -3.96247,0.7947 0,-2.0309 3.94039,-0.7947 2.22959,0 0,14.60264 3.64238,0 0,1.87638 -9.49227,0 0,-1.87638 z" />
    <path
       inkscape:connector-curvature="0"
       id="path4247"
       style="font-style:normal;font-weight:normal;font-size:22.60485649px;line-height:125%;font-family:Sans;letter-spacing:0px;word-spacing:0px;fill:url(#linearGradient4369);fill-opacity:1;stroke:none;stroke-width:1px;stroke-linecap:butt;stroke-linejoin:miter;stroke-opacity:1"
       d="m 422.05442,377.11356 q -1.72186,0 -2.59382,1.69978 -0.86093,1.68874 -0.86093,5.0883 0,3.38852 0.86093,5.0883 0.87196,1.68874 2.59382,1.68874 1.73289,0 2.59382,-1.68874 0.87196,-1.69978 0.87196,-5.0883 0,-3.39956 -0.87196,-5.0883 -0.86093,-1.69978 -2.59382,-1.69978 z m 0,-1.76601 q 2.77042,0 4.22737,2.19647 1.46799,2.18543 1.46799,6.35762 0,4.16114 -1.46799,6.35761 -1.45695,2.18543 -4.22737,2.18543 -2.77042,0 -4.23841,-2.18543 -1.45696,-2.19647 -1.45696,-6.35761 0,-4.17219 1.45696,-6.35762 1.46799,-2.19647 4.23841,-2.19647 z" />
    <path
       inkscape:connector-curvature="0"
       id="path4249"
       style="font-style:normal;font-weight:normal;font-size:22.60485649px;line-height:125%;font-family:Sans;letter-spacing:0px;word-spacing:0px;fill:url(#linearGradient4371);fill-opacity:1;stroke:none;stroke-width:1px;stroke-linecap:butt;stroke-linejoin:miter;stroke-opacity:1"
       d="m 436.44735,377.11356 q -1.72186,0 -2.59382,1.69978 -0.86093,1.68874 -0.86093,5.0883 0,3.38852 0.86093,5.0883 0.87196,1.68874 2.59382,1.68874 1.73289,0 2.59382,-1.68874 0.87196,-1.69978 0.87196,-5.0883 0,-3.39956 -0.87196,-5.0883 -0.86093,-1.69978 -2.59382,-1.69978 z m 0,-1.76601 q 2.77042,0 4.22737,2.19647 1.46799,2.18543 1.46799,6.35762 0,4.16114 -1.46799,6.35761 -1.45695,2.18543 -4.22737,2.18543 -2.77042,0 -4.23841,-2.18543 -1.45696,-2.19647 -1.45696,-6.35761 0,-4.17219 1.45696,-6.35762 1.46799,-2.19647 4.23841,-2.19647 z" />
    <path
       inkscape:connector-curvature="0"
       id="path4251"
       style="font-style:normal;font-weight:normal;font-size:22.60485649px;line-height:125%;font-family:Sans;letter-spacing:0px;word-spacing:0px;fill:url(#linearGradient4373);fill-opacity:1;stroke:none;stroke-width:1px;stroke-linecap:butt;stroke-linejoin:miter;stroke-opacity:1"
       d="m 446.45839,390.24821 3.64239,0 0,-12.57174 -3.96247,0.7947 0,-2.0309 3.94039,-0.7947 2.22958,0 0,14.60264 3.64239,0 0,1.87638 -9.49228,0 0,-1.87638 z" />
    <path
       inkscape:connector-curvature="0"
       id="path4253"
       style="font-style:normal;font-weight:normal;font-size:22.60485649px;line-height:125%;font-family:Sans;letter-spacing:0px;word-spacing:0px;fill:url(#linearGradient4375);fill-opacity:1;stroke:none;stroke-width:1px;stroke-linecap:butt;stroke-linejoin:miter;stroke-opacity:1"
       d="m 460.85132,390.24821 3.64239,0 0,-12.57174 -3.96248,0.7947 0,-2.0309 3.9404,-0.7947 2.22958,0 0,14.60264 3.64239,0 0,1.87638 -9.49228,0 0,-1.87638 z" />
    <path
       inkscape:connector-curvature="0"
       id="path4255"
       style="font-style:normal;font-weight:normal;font-size:22.60485649px;line-height:125%;font-family:Sans;letter-spacing:0px;word-spacing:0px;fill:url(#linearGradient4377);fill-opacity:1;stroke:none;stroke-width:1px;stroke-linecap:butt;stroke-linejoin:miter;stroke-opacity:1"
       d="m 475.24427,390.24821 3.64238,0 0,-12.57174 -3.96247,0.7947 0,-2.0309 3.9404,-0.7947 2.22958,0 0,14.60264 3.64238,0 0,1.87638 -9.49227,0 0,-1.87638 z" />
    <path
       inkscape:connector-curvature="0"
       id="path4257"
       style="font-style:normal;font-weight:normal;font-size:22.60485649px;line-height:125%;font-family:Sans;letter-spacing:0px;word-spacing:0px;fill:url(#linearGradient4379);fill-opacity:1;stroke:none;stroke-width:1px;stroke-linecap:butt;stroke-linejoin:miter;stroke-opacity:1"
       d="m 494.01909,377.11356 q -1.72185,0 -2.59381,1.69978 -0.86093,1.68874 -0.86093,5.0883 0,3.38852 0.86093,5.0883 0.87196,1.68874 2.59381,1.68874 1.7329,0 2.59382,-1.68874 0.87197,-1.69978 0.87197,-5.0883 0,-3.39956 -0.87197,-5.0883 -0.86092,-1.69978 -2.59382,-1.69978 z m 0,-1.76601 q 2.77042,0 4.22738,2.19647 1.46799,2.18543 1.46799,6.35762 0,4.16114 -1.46799,6.35761 -1.45696,2.18543 -4.22738,2.18543 -2.77042,0 -4.23841,-2.18543 -1.45695,-2.19647 -1.45695,-6.35761 0,-4.17219 1.45695,-6.35762 1.46799,-2.19647 4.23841,-2.19647 z" />
    <path
       inkscape:connector-curvature="0"
       id="path4259"
       style="font-style:normal;font-weight:normal;font-size:22.60485649px;line-height:125%;font-family:Sans;letter-spacing:0px;word-spacing:0px;fill:url(#linearGradient4381);fill-opacity:1;stroke:none;stroke-width:1px;stroke-linecap:butt;stroke-linejoin:miter;stroke-opacity:1"
       d="m 504.03013,390.24821 3.64238,0 0,-12.57174 -3.96247,0.7947 0,-2.0309 3.94039,-0.7947 2.22958,0 0,14.60264 3.64239,0 0,1.87638 -9.49227,0 0,-1.87638 z" />
    <path
       inkscape:connector-curvature="0"
       id="path4261"
       style="font-style:normal;font-weight:normal;font-size:22.60485649px;line-height:125%;font-family:Sans;letter-spacing:0px;word-spacing:0px;fill:url(#linearGradient4383);fill-opacity:1;stroke:none;stroke-width:1px;stroke-linecap:butt;stroke-linejoin:miter;stroke-opacity:1"
       d="m 522.80497,377.11356 q -1.72186,0 -2.59382,1.69978 -0.86093,1.68874 -0.86093,5.0883 0,3.38852 0.86093,5.0883 0.87196,1.68874 2.59382,1.68874 1.73289,0 2.59382,-1.68874 0.87196,-1.69978 0.87196,-5.0883 0,-3.39956 -0.87196,-5.0883 -0.86093,-1.69978 -2.59382,-1.69978 z m 0,-1.76601 q 2.77042,0 4.22737,2.19647 1.46799,2.18543 1.46799,6.35762 0,4.16114 -1.46799,6.35761 -1.45695,2.18543 -4.22737,2.18543 -2.77042,0 -4.23841,-2.18543 -1.45696,-2.19647 -1.45696,-6.35761 0,-4.17219 1.45696,-6.35762 1.46799,-2.19647 4.23841,-2.19647 z" />
    <path
       inkscape:connector-curvature="0"
       id="path4263"
       style="font-style:normal;font-weight:normal;font-size:22.60485649px;line-height:125%;font-family:Sans;letter-spacing:0px;word-spacing:0px;fill:url(#linearGradient4385);fill-opacity:1;stroke:none;stroke-width:1px;stroke-linecap:butt;stroke-linejoin:miter;stroke-opacity:1"
       d="m 532.81601,390.24821 3.64239,0 0,-12.57174 -3.96247,0.7947 0,-2.0309 3.94039,-0.7947 2.22958,0 0,14.60264 3.64239,0 0,1.87638 -9.49228,0 0,-1.87638 z" />
    <path
       inkscape:connector-curvature="0"
       id="path4265"
       style="font-style:normal;font-weight:normal;font-size:22.60485649px;line-height:125%;font-family:Sans;letter-spacing:0px;word-spacing:0px;fill:url(#linearGradient4387);fill-opacity:1;stroke:none;stroke-width:1px;stroke-linecap:butt;stroke-linejoin:miter;stroke-opacity:1"
       d="m 551.59083,377.11356 q -1.72186,0 -2.59382,1.69978 -0.86093,1.68874 -0.86093,5.0883 0,3.38852 0.86093,5.0883 0.87196,1.68874 2.59382,1.68874 1.73289,0 2.59381,-1.68874 0.87197,-1.69978 0.87197,-5.0883 0,-3.39956 -0.87197,-5.0883 -0.86092,-1.69978 -2.59381,-1.69978 z m 0,-1.76601 q 2.77042,0 4.22737,2.19647 1.46799,2.18543 1.46799,6.35762 0,4.16114 -1.46799,6.35761 -1.45695,2.18543 -4.22737,2.18543 -2.77042,0 -4.23841,-2.18543 -1.45696,-2.19647 -1.45696,-6.35761 0,-4.17219 1.45696,-6.35762 1.46799,-2.19647 4.23841,-2.19647 z" />
    <path
       inkscape:connector-curvature="0"
       id="path4267"
       style="font-style:normal;font-weight:normal;font-size:22.60485649px;line-height:125%;font-family:Sans;letter-spacing:0px;word-spacing:0px;fill:url(#linearGradient4389);fill-opacity:1;stroke:none;stroke-width:1px;stroke-linecap:butt;stroke-linejoin:miter;stroke-opacity:1"
       d="m 561.60187,390.24821 3.64239,0 0,-12.57174 -3.96248,0.7947 0,-2.0309 3.9404,-0.7947 2.22958,0 0,14.60264 3.64239,0 0,1.87638 -9.49228,0 0,-1.87638 z" />
    <path
       inkscape:connector-curvature="0"
       id="path4269"
       style="font-style:normal;font-weight:normal;font-size:22.60485649px;line-height:125%;font-family:Sans;letter-spacing:0px;word-spacing:0px;fill:url(#linearGradient4391);fill-opacity:1;stroke:none;stroke-width:1px;stroke-linecap:butt;stroke-linejoin:miter;stroke-opacity:1"
       d="m 575.99482,390.24821 3.64238,0 0,-12.57174 -3.96247,0.7947 0,-2.0309 3.9404,-0.7947 2.22958,0 0,14.60264 3.64238,0 0,1.87638 -9.49227,0 0,-1.87638 z" />
    <path
       inkscape:connector-curvature="0"
       id="path4271"
       style="font-style:normal;font-weight:normal;font-size:22.60485649px;line-height:125%;font-family:Sans;letter-spacing:0px;word-spacing:0px;fill:url(#linearGradient4393);fill-opacity:1;stroke:none;stroke-width:1px;stroke-linecap:butt;stroke-linejoin:miter;stroke-opacity:1"
       d="m 590.38776,390.24821 3.64238,0 0,-12.57174 -3.96247,0.7947 0,-2.0309 3.9404,-0.7947 2.22958,0 0,14.60264 3.64238,0 0,1.87638 -9.49227,0 0,-1.87638 z" />
    <path
       inkscape:connector-curvature="0"
       id="path4273"
       style="font-style:normal;font-weight:normal;font-size:22.60485649px;line-height:125%;font-family:Sans;letter-spacing:0px;word-spacing:0px;fill:url(#linearGradient4395);fill-opacity:1;stroke:none;stroke-width:1px;stroke-linecap:butt;stroke-linejoin:miter;stroke-opacity:1"
       d="m 609.16257,377.11356 q -1.72185,0 -2.59382,1.69978 -0.86092,1.68874 -0.86092,5.0883 0,3.38852 0.86092,5.0883 0.87197,1.68874 2.59382,1.68874 1.73289,0 2.59382,-1.68874 0.87197,-1.69978 0.87197,-5.0883 0,-3.39956 -0.87197,-5.0883 -0.86093,-1.69978 -2.59382,-1.69978 z m 0,-1.76601 q 2.77042,0 4.22738,2.19647 1.46799,2.18543 1.46799,6.35762 0,4.16114 -1.46799,6.35761 -1.45696,2.18543 -4.22738,2.18543 -2.77042,0 -4.23841,-2.18543 -1.45695,-2.19647 -1.45695,-6.35761 0,-4.17219 1.45695,-6.35762 1.46799,-2.19647 4.23841,-2.19647 z" />
    <path
       inkscape:connector-curvature="0"
       id="path4275"
       style="font-style:normal;font-weight:normal;font-size:22.60485649px;line-height:125%;font-family:Sans;letter-spacing:0px;word-spacing:0px;fill:url(#linearGradient4397);fill-opacity:1;stroke:none;stroke-width:1px;stroke-linecap:butt;stroke-linejoin:miter;stroke-opacity:1"
       d="m 623.55552,377.11356 q -1.72186,0 -2.59382,1.69978 -0.86093,1.68874 -0.86093,5.0883 0,3.38852 0.86093,5.0883 0.87196,1.68874 2.59382,1.68874 1.73289,0 2.59382,-1.68874 0.87196,-1.69978 0.87196,-5.0883 0,-3.39956 -0.87196,-5.0883 -0.86093,-1.69978 -2.59382,-1.69978 z m 0,-1.76601 q 2.77042,0 4.22737,2.19647 1.46799,2.18543 1.46799,6.35762 0,4.16114 -1.46799,6.35761 -1.45695,2.18543 -4.22737,2.18543 -2.77042,0 -4.23841,-2.18543 -1.45696,-2.19647 -1.45696,-6.35761 0,-4.17219 1.45696,-6.35762 1.46799,-2.19647 4.23841,-2.19647 z" />
    <path
       inkscape:connector-curvature="0"
       id="path4277"
       style="font-style:normal;font-weight:normal;font-size:22.60485649px;line-height:125%;font-family:Sans;letter-spacing:0px;word-spacing:0px;fill:url(#linearGradient4399);fill-opacity:1;stroke:none;stroke-width:1px;stroke-linecap:butt;stroke-linejoin:miter;stroke-opacity:1"
       d="m 633.56656,390.24821 3.64239,0 0,-12.57174 -3.96248,0.7947 0,-2.0309 3.9404,-0.7947 2.22958,0 0,14.60264 3.64239,0 0,1.87638 -9.49228,0 0,-1.87638 z" />
    <path
       inkscape:connector-curvature="0"
       id="path4279"
       style="font-style:normal;font-weight:normal;font-size:22.60485649px;line-height:125%;font-family:Sans;letter-spacing:0px;word-spacing:0px;fill:url(#linearGradient4401);fill-opacity:1;stroke:none;stroke-width:1px;stroke-linecap:butt;stroke-linejoin:miter;stroke-opacity:1"
       d="m 647.95948,390.24821 3.64238,0 0,-12.57174 -3.96247,0.7947 0,-2.0309 3.9404,-0.7947 2.22958,0 0,14.60264 3.64238,0 0,1.87638 -9.49227,0 0,-1.87638 z" />
  </g>
</svg>
