<?xml version="1.0" encoding="UTF-8" standalone="no"?>
<!-- Created with Inkscape (http://www.inkscape.org/) -->

<svg
   xmlns:dc="http://purl.org/dc/elements/1.1/"
   xmlns:cc="http://creativecommons.org/ns#"
   xmlns:rdf="http://www.w3.org/1999/02/22-rdf-syntax-ns#"
   xmlns:svg="http://www.w3.org/2000/svg"
   xmlns="http://www.w3.org/2000/svg"
   xmlns:sodipodi="http://sodipodi.sourceforge.net/DTD/sodipodi-0.dtd"
   xmlns:inkscape="http://www.inkscape.org/namespaces/inkscape"
   width="54.186665mm"
   height="54.186668mm"
   viewBox="0 0 191.99999 192"
   id="svg4694"
   version="1.1"
   inkscape:version="0.91 r13725"
   sodipodi:docname="privacylab_ghosticon.svg"
   inkscape:export-filename="/home/diggity/Desktop/PRIVACY LAB/privacylab_logo/privacylab_ghosticon.png"
   inkscape:export-xdpi="338.14285"
   inkscape:export-ydpi="338.14285">
  <defs
     id="defs4696">
    <path
       inkscape:connector-curvature="0"
       d="m -1404.1282,-394.17267 c -2.7656,-1.74164 -5.3929,-5.10861 -5.116,-8.35914 -0.2764,-5.31129 4.8406,-9.79472 10.6486,-9.56189 0,0 47.9862,1.10823 74.9543,-24.7191 14.6596,-13.88583 21.022,-32.99676 19.5027,-57.92757 -3.5916,-56.20327 9.1335,-94.42506 37.3457,-113.47542 33.6058,-22.50352 75.0913,-9.22093 76.4743,-8.35004 5.6696,1.85807 9.5413,7.72114 8.0198,12.75643 -1.5216,5.03532 -7.6065,8.05299 -13.2761,6.19493 0,0 -32.6355,-10.27779 -57.3903,6.66884 -22.4038,15.00233 -32.5011,48.02932 -29.0475,97.29604 1.7958,30.24212 -6.7797,53.95288 -25.4499,72.16267 -34.0213,31.66018 -88.5068,29.88372 -90.7195,30.20269 -2.0742,-1.30627 -4.5633,-2.0176 -5.9461,-2.88844"
       id="path8"
       style="fill:none;fill-opacity:1;stroke:none" />
  </defs>
  <sodipodi:namedview
     id="base"
     pagecolor="#ffffff"
     bordercolor="#666666"
     borderopacity="1.0"
     inkscape:pageopacity="0.0"
     inkscape:pageshadow="2"
     inkscape:zoom="1.4142136"
     inkscape:cx="132.60252"
     inkscape:cy="122.27295"
     inkscape:document-units="px"
     inkscape:current-layer="layer1"
     showgrid="false"
     fit-margin-left="0"
     fit-margin-top="0"
     fit-margin-bottom="0"
     fit-margin-right="0"
     inkscape:window-width="1920"
     inkscape:window-height="1107"
     inkscape:window-x="0"
     inkscape:window-y="25"
     inkscape:window-maximized="1" />
  <metadata
     id="metadata4699">
    <rdf:RDF>
      <cc:Work
         rdf:about="">
        <dc:format>image/svg+xml</dc:format>
        <dc:type
           rdf:resource="http://purl.org/dc/dcmitype/StillImage" />
        <dc:title></dc:title>
      </cc:Work>
    </rdf:RDF>
  </metadata>
  <g
     inkscape:label="Layer 1"
     inkscape:groupmode="layer"
     id="layer1"
     transform="translate(-144.81039,-556.24687)">
    <g
       id="g4159"
       transform="matrix(1.0581245,0,0,0.94724331,-8.4170434,39.475028)">
      <path
         id="path10-3"
         d="m 235.53642,545.55343 c -24.67881,0 -91.41588,38.16231 -90.72063,129.02497 0,14.53803 0.69515,50.88309 7.64686,56.69831 6.95176,6.17865 23.98366,-9.44972 32.32576,-5.45175 8.34216,4.3614 11.12285,19.98978 20.50776,22.17047 9.38485,2.18071 20.85532,-10.54007 30.24025,-10.54007 9.38488,0 21.20285,12.72078 30.24016,10.54007 9.03731,-2.18069 12.16556,-17.80907 20.50772,-22.17047 7.99453,-3.99797 25.374,11.26697 32.32565,5.45175 6.95178,-6.17866 7.64703,-42.52372 7.64703,-56.69831 0.69513,-82.13985 -58.3949,-129.02497 -90.72056,-129.02497"
         style="fill:#286dc0;fill-opacity:1"
         inkscape:connector-curvature="0" />
      <path
         inkscape:connector-curvature="0"
         id="path10-3-7"
         d="m 235.5368,545.55374 c -0.34544,0 -0.70156,0.009 -1.06313,0.025 l 0,191.93481 c 0.357,-0.0341 0.71175,-0.0584 1.06313,-0.0584 9.38481,0 21.20247,12.7205 30.23978,10.53978 9.03731,-2.18068 12.16512,-17.80825 20.50731,-22.16965 7.99447,-3.99797 25.37469,11.26697 32.32641,5.45178 6.95175,-6.17869 7.64715,-42.5235 7.64715,-56.69806 0.69522,-82.13984 -58.395,-129.02512 -90.72065,-129.02512 z"
         style="fill:#00356b;fill-opacity:1" />
      <path
         d="m 203.20829,686.14121 c 0,3.09581 -2.51037,5.59912 -5.58523,5.59912 -3.08631,0 -5.59904,-2.501 -5.59904,-5.59912 0,-3.08175 2.51273,-5.5851 5.59904,-5.5851 3.07486,0 5.58523,2.50335 5.58523,5.5851"
         style="fill:#ffffff;fill-opacity:1;fill-rule:evenodd;stroke:none"
         id="path350"
         inkscape:connector-curvature="0" />
      <path
         d="m 240.67627,686.14121 c 0,3.09581 -2.51028,5.59912 -5.58503,5.59912 -3.08635,0 -5.59913,-2.501 -5.59913,-5.59912 0,-3.08175 2.51278,-5.5851 5.59913,-5.5851 3.07475,0 5.58503,2.50335 5.58503,5.5851"
         style="fill:#ffffff;fill-opacity:1;fill-rule:evenodd;stroke:none"
         id="path350-9"
         inkscape:connector-curvature="0" />
      <path
         d="m 278.14445,686.14121 c 0,3.09581 -2.51031,5.59912 -5.58506,5.59912 -3.08644,0 -5.59922,-2.501 -5.59922,-5.59912 0,-3.08175 2.51278,-5.5851 5.59922,-5.5851 3.07475,0 5.58506,2.50335 5.58506,5.5851"
         style="fill:#ffffff;fill-opacity:1;fill-rule:evenodd;stroke:none"
         id="path350-9-1"
         inkscape:connector-curvature="0" />
      <path
         style="fill:#d4aa00;fill-opacity:1"
         inkscape:connector-curvature="0"
         id="path20"
         d="m 273.79595,622.90487 c 0,21.55134 -17.4884,38.86309 -38.86309,38.86309 -21.37472,0 -38.86312,-17.31175 -38.86312,-38.86309 0,-21.37472 17.4884,-38.8631 38.86312,-38.8631 21.55134,0 38.86309,17.48838 38.86309,38.8631" />
      <path
         style="fill:#ffffff;fill-opacity:1"
         inkscape:connector-curvature="0"
         id="path22"
         d="m 269.55633,622.90487 c 0,19.07824 -15.54525,34.62346 -34.62347,34.62346 -19.07825,0 -34.6235,-15.54522 -34.6235,-34.62346 0,-19.07825 15.54525,-34.6235 34.6235,-34.6235 19.07822,0.17656 34.62347,15.54525 34.62347,34.6235" />
      <circle
         r="28.087412"
         style="fill:#6eb1e1;fill-opacity:1"
         id="circle24"
         cy="622.90491"
         cx="234.93286" />
      <circle
         r="15.191935"
         style="fill:#212528"
         id="circle26"
         cy="622.90491"
         cx="234.93286" />
      <path
         d="m 255.60095,611.06927 c 0,4.76956 -3.88634,8.65588 -8.65587,8.65588 -4.76953,0 -8.65584,-3.88632 -8.65584,-8.65588 0,-4.76956 3.88631,-8.65587 8.65584,-8.65587 4.76953,-0.17657 8.65587,3.88631 8.65587,8.65587"
         id="path30"
         inkscape:connector-curvature="0"
         style="opacity:0.5;fill:#f5f5f5" />
      <circle
         r="3.3563576"
         cx="219.91757"
         cy="638.0968"
         id="circle34"
         style="opacity:0.5;fill:#f5f5f5" />
    </g>
  </g>
</svg>
