<?xml version="1.0" encoding="UTF-8" standalone="no"?>
<!-- Created with Inkscape (http://www.inkscape.org/) -->

<svg
   xmlns:dc="http://purl.org/dc/elements/1.1/"
   xmlns:cc="http://creativecommons.org/ns#"
   xmlns:rdf="http://www.w3.org/1999/02/22-rdf-syntax-ns#"
   xmlns:svg="http://www.w3.org/2000/svg"
   xmlns="http://www.w3.org/2000/svg"
   xmlns:sodipodi="http://sodipodi.sourceforge.net/DTD/sodipodi-0.dtd"
   xmlns:inkscape="http://www.inkscape.org/namespaces/inkscape"
   width="500"
   height="500"
   viewBox="0 0 468.75001 468.75002"
   id="svg4694"
   version="1.1"
   inkscape:version="0.92.1 r15371"
   sodipodi:docname="logo-privacylab_paths.svg"
   inkscape:export-filename="/home/diggity/Desktop/PRIVACY LAB/privacylab_logo/privacylab_logo_condensed.png"
   inkscape:export-xdpi="90"
   inkscape:export-ydpi="90">
  <defs
     id="defs4696">
    <path
       inkscape:connector-curvature="0"
       d="m -1404.1282,-394.17267 c -2.7656,-1.74164 -5.3929,-5.10861 -5.116,-8.35914 -0.2764,-5.31129 4.8406,-9.79472 10.6486,-9.56189 0,0 47.9862,1.10823 74.9543,-24.7191 14.6596,-13.88583 21.022,-32.99676 19.5027,-57.92757 -3.5916,-56.20327 9.1335,-94.42506 37.3457,-113.47542 33.6058,-22.50352 75.0913,-9.22093 76.4743,-8.35004 5.6696,1.85807 9.5413,7.72114 8.0198,12.75643 -1.5216,5.03532 -7.6065,8.05299 -13.2761,6.19493 0,0 -32.6355,-10.27779 -57.3903,6.66884 -22.4038,15.00233 -32.5011,48.02932 -29.0475,97.29604 1.7958,30.24212 -6.7797,53.95288 -25.4499,72.16267 -34.0213,31.66018 -88.5068,29.88372 -90.7195,30.20269 -2.0742,-1.30627 -4.5633,-2.0176 -5.9461,-2.88844"
       id="path8"
       style="fill:none;fill-opacity:1;stroke:none" />
  </defs>
  <sodipodi:namedview
     id="base"
     pagecolor="#ffffff"
     bordercolor="#666666"
     borderopacity="1.0"
     inkscape:pageopacity="0.0"
     inkscape:pageshadow="2"
     inkscape:zoom="0.7"
     inkscape:cx="-65.670534"
     inkscape:cy="299.28645"
     inkscape:document-units="px"
     inkscape:current-layer="layer1"
     showgrid="false"
     fit-margin-left="0"
     fit-margin-top="0"
     fit-margin-bottom="0"
     fit-margin-right="0"
     inkscape:window-width="1920"
     inkscape:window-height="1107"
     inkscape:window-x="0"
     inkscape:window-y="25"
     inkscape:window-maximized="1"
     units="px"
     showguides="true" />
  <metadata
     id="metadata4699">
    <rdf:RDF>
      <cc:Work
         rdf:about="">
        <dc:format>image/svg+xml</dc:format>
        <dc:type
           rdf:resource="http://purl.org/dc/dcmitype/StillImage" />
        <dc:title></dc:title>
      </cc:Work>
    </rdf:RDF>
  </metadata>
  <g
     inkscape:label="Layer 1"
     inkscape:groupmode="layer"
     id="layer1"
     transform="translate(-142.06771,-181.1906)">
    <path
       inkscape:connector-curvature="0"
       id="path4503"
       style="font-style:normal;font-variant:normal;font-weight:600;font-stretch:normal;font-size:106.76399231px;line-height:100%;font-family:Bungee;-inkscape-font-specification:'Bungee Semi-Bold';text-align:center;letter-spacing:0px;word-spacing:0px;text-anchor:middle;fill:#286dc0;fill-opacity:1;stroke:none;stroke-width:0.80072999px;stroke-linecap:butt;stroke-linejoin:miter;stroke-opacity:1"
       d="m 324.78039,649.94061 c 2.6691,0 3.8435,-1.1744 3.8435,-3.8435 v -33.63066 c 0,-2.6691 -1.1744,-3.8435 -3.8435,-3.8435 h -15.48078 c -2.6691,0 -3.84351,1.1744 -3.84351,3.8435 v 17.29577 h -14.62666 v -52.84818 c 0,-2.6691 -1.17441,-3.8435 -3.84351,-3.8435 h -16.54842 c -2.66909,0 -3.8435,1.1744 -3.8435,3.8435 v 69.18307 c 0,2.6691 1.17441,3.8435 3.8435,3.8435 z m -46.5491,-9.60876 V 582.6793 h 1.06764 v 56.58491 h 37.15387 v -21.0325 h 1.06764 v 22.10014 z" />
    <path
       inkscape:connector-curvature="0"
       id="path4505"
       style="font-style:normal;font-variant:normal;font-weight:600;font-stretch:normal;font-size:106.76399231px;line-height:100%;font-family:Bungee;-inkscape-font-specification:'Bungee Semi-Bold';text-align:center;letter-spacing:0px;word-spacing:0px;text-anchor:middle;fill:#286dc0;fill-opacity:1;stroke:none;stroke-width:0.80072999px;stroke-linecap:butt;stroke-linejoin:miter;stroke-opacity:1"
       d="m 351.61151,617.59112 v 3.30969 h 41.63796 v -3.30969 c 0,-3.8435 -0.64059,-7.04642 -1.70823,-9.92905 l -7.36671,-17.40253 c -1.60146,-3.73674 -2.77586,-6.5126 -6.72613,-6.5126 h -10.46287 c -4.27056,0 -5.44497,2.77586 -6.8329,6.40584 l -6.83289,17.50929 c -1.06764,2.88263 -1.70823,6.08555 -1.70823,9.92905 z m 17.08224,-22.10014 c 0.53382,-1.28117 1.1744,-1.81499 2.02852,-1.81499 h 2.6691 c 0.85411,0 1.49469,0.53382 2.02851,1.81499 l 5.01791,16.22812 h -16.76195 z m 24.55572,44.84087 v -18.3634 h -41.63796 v 18.3634 h -1.06764 v -22.74073 c 0,-3.95026 0.64059,-7.25995 1.81499,-10.3561 l 6.83289,-17.5093 c 1.60146,-3.95027 2.88263,-7.04642 7.79378,-7.04642 h 10.46287 c 4.69761,0 5.97878,2.98939 7.687,7.15319 l 7.36672,17.40253 c 1.1744,3.09615 1.81499,6.40584 1.81499,10.3561 v 22.74073 z m -30.64127,5.76526 v -14.94696 h 18.89723 v 14.94696 c 0,2.6691 1.28117,3.8435 4.16379,3.8435 h 16.12137 c 2.6691,0 3.8435,-1.1744 3.8435,-3.8435 v -28.18569 c 0,-4.27056 -1.28117,-9.60876 -4.16379,-17.08224 l -9.28847,-24.23543 c -0.85411,-2.45557 -2.56234,-3.52321 -5.3382,-3.52321 h -28.71952 c -2.88262,0 -4.59085,1.06764 -5.44496,3.52321 l -9.28847,24.23543 c -2.88262,7.47348 -4.16379,12.81168 -4.16379,17.08224 v 28.18569 c 0,2.6691 1.1744,3.8435 3.8435,3.8435 h 15.69431 c 2.6691,0 3.8435,-1.1744 3.8435,-3.8435 z" />
    <path
       inkscape:connector-curvature="0"
       id="path4507"
       style="font-style:normal;font-variant:normal;font-weight:600;font-stretch:normal;font-size:106.76399231px;line-height:100%;font-family:Bungee;-inkscape-font-specification:'Bungee Semi-Bold';text-align:center;letter-spacing:0px;word-spacing:0px;text-anchor:middle;fill:#286dc0;fill-opacity:1;stroke:none;stroke-width:0.80072999px;stroke-linecap:butt;stroke-linejoin:miter;stroke-opacity:1"
       d="m 463.65699,649.94061 c 14.19962,0 20.71222,-5.55172 20.71222,-17.50929 v -9.82229 c 0,-10.46287 -4.27056,-15.69431 -13.45226,-16.54842 4.27056,-1.81499 6.29907,-5.55173 6.29907,-11.53051 v -5.12467 c 0,-11.21022 -6.5126,-16.33489 -20.49868,-16.33489 h -34.05772 c -2.6691,0 -3.8435,1.1744 -3.8435,3.8435 v 69.18307 c 0,2.6691 1.1744,3.8435 3.8435,3.8435 z m -32.99007,-9.60876 V 582.6793 h 21.67309 c 11.8508,0 13.98608,5.12467 13.98608,11.31698 v 6.8329 c 0,4.27056 -0.74734,8.11406 -6.83289,9.71552 11.8508,0 13.87932,5.23144 13.87932,12.27786 v 6.83289 c 0,6.29908 -2.02852,10.6764 -13.98608,10.6764 z m 21.67309,-56.58491 h -20.60545 v 26.79776 h 20.60545 c 11.74404,0 12.91844,-4.59085 12.91844,-9.71552 v -6.8329 c 0,-5.76525 -2.13528,-10.24934 -12.91844,-10.24934 z m -9.50199,7.47348 h 9.07494 c 2.77586,0 4.05703,1.38793 4.05703,4.27056 v 2.98939 c 0,2.88263 -1.28117,4.27056 -4.05703,4.27056 h -9.07494 z m 16.65518,20.39192 h -27.75864 v 27.65187 h 27.65188 c 10.67639,0 12.91844,-3.73674 12.91844,-9.60876 v -6.83289 c 0,-6.40584 -2.02852,-11.21022 -12.81168,-11.21022 z m -16.65518,7.58024 h 13.87932 c 2.77586,0 4.05703,1.28117 4.05703,4.1638 v 4.16379 c 0,2.88263 -1.28117,4.27056 -4.05703,4.27056 h -13.87932 z" />
    <path
       inkscape:connector-curvature="0"
       id="path4510"
       style="font-style:normal;font-variant:normal;font-weight:600;font-stretch:normal;font-size:67.12425995px;line-height:100%;font-family:Bungee;-inkscape-font-specification:'Bungee Semi-Bold';text-align:center;letter-spacing:0px;word-spacing:0px;text-anchor:middle;fill:#00356b;fill-opacity:1;stroke:none;stroke-width:0.80072993px;stroke-linecap:butt;stroke-linejoin:miter;stroke-opacity:1"
       d="m 229.88845,547.49457 c 1.6781,0 2.41647,-0.73837 2.41647,-2.41648 v -11.14262 h 7.71929 c 12.21661,0 15.84132,-5.30282 15.84132,-13.08923 v -8.59191 c 0,-7.78641 -3.62471,-13.08923 -15.84132,-13.08923 h -20.54002 c -1.67811,0 -2.41648,0.73837 -2.41648,2.41647 v 43.49652 c 0,1.67811 0.73837,2.41648 2.41648,2.41648 z m 9.19602,-19.26466 h -13.8276 v 13.22347 h -0.67124 v -36.2471 h 14.49884 c 8.45766,0 10.06864,3.89321 10.06864,9.1289 v 4.9672 c 0,5.23569 -1.61098,8.92753 -10.06864,8.92753 z m -13.8276,-0.67125 h 13.8276 c 7.92066,0 9.3974,-3.42333 9.3974,-8.25628 v -4.9672 c 0,-4.83294 -1.47674,-8.45765 -9.3974,-8.45765 h -13.8276 z m 6.9138,-15.84132 h 6.04118 c 2.61785,0 3.15484,1.54386 3.15484,3.28909 v 3.55758 c 0,1.74523 -0.53699,3.28909 -3.15484,3.28909 h -6.04118 z" />
    <path
       inkscape:connector-curvature="0"
       id="path4512"
       style="font-style:normal;font-variant:normal;font-weight:600;font-stretch:normal;font-size:67.12425995px;line-height:100%;font-family:Bungee;-inkscape-font-specification:'Bungee Semi-Bold';text-align:center;letter-spacing:0px;word-spacing:0px;text-anchor:middle;fill:#00356b;fill-opacity:1;stroke:none;stroke-width:0.80072993px;stroke-linecap:butt;stroke-linejoin:miter;stroke-opacity:1"
       d="M 285.37609,505.87753 H 270.743 v 19.39891 h 14.63309 c 5.57131,0 6.98092,-2.7521 6.98092,-7.71929 v -4.6987 c 0,-4.1617 -2.2151,-6.98092 -6.98092,-6.98092 z m -7.38367,5.36994 h 5.03432 c 2.34935,0 2.95347,1.34248 2.95347,3.15484 v 2.28222 c 0,1.81236 -0.60412,3.15484 -2.95347,3.15484 h -5.03432 z m -7.24942,30.20591 h -0.67124 v -36.2471 h 15.30433 c 5.23569,0 7.65216,3.22197 7.65216,7.65217 v 4.63157 c 0,4.09458 -0.80549,6.77955 -4.02745,7.78642 h 0.73836 c 5.50419,0 8.12204,2.4836 8.12204,7.18229 v 8.99465 h -0.67124 v -8.99465 c 0,-4.4302 -2.34935,-6.57817 -7.4508,-6.57817 H 270.743 Z m 4.83294,6.04119 c 1.67811,0 2.41648,-0.73837 2.41648,-2.41648 v -13.15635 h 9.39739 c 1.87948,0 2.55073,0.87261 2.55073,2.88634 v 10.27001 c 0,1.67811 0.73836,2.41648 2.41647,2.41648 h 10.40426 c 1.67811,0 2.41647,-0.73837 2.41647,-2.41648 v -14.23034 c 0,-5.63844 -3.22196,-9.19602 -8.12203,-9.73302 2.81922,-1.20823 3.75896,-3.8932 3.75896,-7.65216 v -3.08772 c 0,-6.6453 -3.15484,-11.20975 -13.22348,-11.20975 h -22.35238 c -1.67811,0 -2.41647,0.73837 -2.41647,2.41647 v 43.49652 c 0,1.67811 0.73836,2.41648 2.41647,2.41648 z" />
    <path
       inkscape:connector-curvature="0"
       id="path4514"
       style="font-style:normal;font-variant:normal;font-weight:600;font-stretch:normal;font-size:67.12425995px;line-height:100%;font-family:Bungee;-inkscape-font-specification:'Bungee Semi-Bold';text-align:center;letter-spacing:0px;word-spacing:0px;text-anchor:middle;fill:#00356b;fill-opacity:1;stroke:none;stroke-width:0.80072993px;stroke-linecap:butt;stroke-linejoin:miter;stroke-opacity:1"
       d="m 313.98361,547.49457 h 28.59493 c 1.67811,0 2.41648,-0.73837 2.41648,-2.41648 v -7.98778 c 0,-1.67811 -0.73837,-2.41648 -2.41648,-2.41648 h -6.51105 v -22.55375 h 6.51105 c 1.67811,0 2.41648,-0.73836 2.41648,-2.41647 v -8.12204 c 0,-1.6781 -0.73837,-2.41647 -2.41648,-2.41647 h -28.59493 c -1.67811,0 -2.41648,0.73837 -2.41648,2.41647 v 8.12204 c 0,1.67811 0.73837,2.41647 2.41648,2.41647 h 6.6453 v 22.55375 h -6.6453 c -1.67811,0 -2.41648,0.73837 -2.41648,2.41648 v 7.98778 c 0,1.67811 0.73837,2.41648 2.41648,2.41648 z m 24.97022,-6.04119 h -21.34551 v -0.67124 h 10.40426 v -34.90461 h -10.40426 v -0.67125 h 21.34551 v 0.67125 h -10.27001 v 34.90461 h 10.27001 z" />
    <path
       inkscape:connector-curvature="0"
       id="path4516"
       style="font-style:normal;font-variant:normal;font-weight:600;font-stretch:normal;font-size:67.12425995px;line-height:100%;font-family:Bungee;-inkscape-font-specification:'Bungee Semi-Bold';text-align:center;letter-spacing:0px;word-spacing:0px;text-anchor:middle;fill:#00356b;fill-opacity:1;stroke:none;stroke-width:0.80072993px;stroke-linecap:butt;stroke-linejoin:miter;stroke-opacity:1"
       d="m 381.8777,547.49457 c 1.74523,0 2.7521,-0.537 3.42334,-2.2151 l 6.57818,-16.44545 c 1.61098,-4.02745 2.14798,-5.30281 2.14798,-9.53164 v -17.72081 c 0,-1.6781 -0.67125,-2.41647 -2.41648,-2.41647 h -10.53851 c -1.6781,0 -2.41647,0.73837 -2.41647,2.41647 v 18.45918 c 0,0.93974 -0.20137,1.74523 -0.53699,2.75209 l -3.15484,9.46452 c -0.2685,0.87262 -0.537,1.14111 -1.27537,1.14111 h -0.73836 c -0.73837,0 -1.00687,-0.26849 -1.27536,-1.14111 l -3.15484,-9.3974 c -0.33562,-1.00686 -0.537,-1.81235 -0.537,-2.75209 v -18.5263 c 0,-1.6781 -0.93974,-2.41647 -2.61784,-2.41647 h -10.67276 c -1.67811,0 -2.41647,0.73837 -2.41647,2.41647 v 17.72081 c 0,4.22883 0.53699,5.50419 2.14797,9.53164 l 6.57818,16.44545 c 0.67124,1.6781 1.67811,2.2151 3.42334,2.2151 z m -22.01675,-42.28829 h 0.67124 v 14.49884 c 0,2.34935 0.33562,4.43021 1.07399,6.24256 l 4.4302,10.73988 c 0.93974,2.34935 1.67811,4.09458 4.22883,4.09458 h 5.90693 c 2.55072,0 3.28909,-1.74523 4.22883,-4.09458 l 4.4302,-10.73988 c 0.73837,-1.81235 1.07399,-3.89321 1.07399,-6.24256 v -14.49884 h 0.67124 v 14.49884 c 0,2.4836 -0.26849,4.56445 -1.07399,6.51106 l -4.4302,10.73988 c -1.07399,2.61785 -2.08085,4.49732 -4.90007,4.49732 h -5.90693 c -2.81922,0 -3.82609,-1.87947 -4.90007,-4.49732 l -4.4302,-10.73988 c -0.8055,-1.94661 -1.07399,-4.02746 -1.07399,-6.51106 z" />
    <path
       inkscape:connector-curvature="0"
       id="path4518"
       style="font-style:normal;font-variant:normal;font-weight:600;font-stretch:normal;font-size:67.12425995px;line-height:100%;font-family:Bungee;-inkscape-font-specification:'Bungee Semi-Bold';text-align:center;letter-spacing:0px;word-spacing:0px;text-anchor:middle;fill:#00356b;fill-opacity:1;stroke:none;stroke-width:0.80072993px;stroke-linecap:butt;stroke-linejoin:miter;stroke-opacity:1"
       d="m 408.43898,527.15592 v 2.08085 h 26.17846 v -2.08085 c 0,-2.41648 -0.40274,-4.4302 -1.07398,-6.24256 l -4.63158,-10.94125 c -1.00686,-2.34935 -1.74523,-4.09458 -4.22883,-4.09458 h -6.57817 c -2.68497,0 -3.42334,1.74523 -4.29596,4.02745 l -4.29595,11.00838 c -0.67124,1.81236 -1.07399,3.82608 -1.07399,6.24256 z m 10.73988,-13.89472 c 0.33563,-0.8055 0.73837,-1.14112 1.27537,-1.14112 h 1.6781 c 0.537,0 0.93974,0.33562 1.27536,1.14112 l 3.15484,10.20288 h -10.53851 z m 15.43858,28.19218 v -11.54537 h -26.17846 v 11.54537 h -0.67124 v -14.29746 c 0,-2.4836 0.40275,-4.56445 1.14111,-6.51106 l 4.29596,-11.00837 c 1.00686,-2.4836 1.81235,-4.43021 4.90007,-4.43021 h 6.57817 c 2.95347,0 3.75896,1.87948 4.83295,4.49733 l 4.63157,10.94125 c 0.73837,1.94661 1.14112,4.02746 1.14112,6.51106 v 14.29746 z m -19.26466,3.62471 v -9.39739 h 11.881 v 9.39739 c 0,1.67811 0.80549,2.41648 2.61784,2.41648 h 10.13577 c 1.6781,0 2.41647,-0.73837 2.41647,-2.41648 v -17.7208 c 0,-2.68497 -0.80549,-6.04118 -2.61785,-10.73988 L 433.9462,501.3802 c -0.53699,-1.54386 -1.61098,-2.2151 -3.35621,-2.2151 h -18.05643 c -1.81235,0 -2.88634,0.67124 -3.42333,2.2151 l -5.83982,15.23721 c -1.81235,4.6987 -2.61784,8.05491 -2.61784,10.73988 v 17.7208 c 0,1.67811 0.73837,2.41648 2.41647,2.41648 h 9.86727 c 1.6781,0 2.41647,-0.73837 2.41647,-2.41648 z" />
    <path
       inkscape:connector-curvature="0"
       id="path4520"
       style="font-style:normal;font-variant:normal;font-weight:600;font-stretch:normal;font-size:67.12425995px;line-height:100%;font-family:Bungee;-inkscape-font-specification:'Bungee Semi-Bold';text-align:center;letter-spacing:0px;word-spacing:0px;text-anchor:middle;fill:#00356b;fill-opacity:1;stroke:none;stroke-width:0.80072993px;stroke-linecap:butt;stroke-linejoin:miter;stroke-opacity:1"
       d="m 482.84412,547.49457 c 1.67811,0 2.41647,-0.73837 2.41647,-2.41648 v -7.98778 c 0,-1.67811 -0.73836,-2.41648 -2.41647,-2.41648 h -13.49198 c -2.81922,0 -4.09458,-1.00686 -4.09458,-3.22196 V 515.4763 c 0,-2.28223 1.27536,-3.35622 4.09458,-3.35622 h 13.49198 c 1.67811,0 2.41647,-0.73836 2.41647,-2.41647 v -8.12204 c 0,-1.6781 -0.73836,-2.41647 -2.41647,-2.41647 H 466.4658 c -11.27688,0 -16.51257,4.36308 -16.51257,13.76047 v 20.87565 c 0,9.33027 5.23569,13.69335 16.51257,13.69335 z m -3.69184,-6.71243 v 0.67124 h -11.20975 c -8.72615,0 -10.73988,-2.41647 -10.73988,-8.65903 v -18.79479 c 0,-6.3768 2.14798,-8.79328 10.73988,-8.79328 h 11.20975 v 0.67125 h -11.20975 c -7.92066,0 -10.06864,2.14797 -10.06864,8.12203 v 18.79479 c 0,5.83982 2.01373,7.98779 10.06864,7.98779 z" />
    <path
       inkscape:connector-curvature="0"
       id="path4522"
       style="font-style:normal;font-variant:normal;font-weight:600;font-stretch:normal;font-size:67.12425995px;line-height:100%;font-family:Bungee;-inkscape-font-specification:'Bungee Semi-Bold';text-align:center;letter-spacing:0px;word-spacing:0px;text-anchor:middle;fill:#00356b;fill-opacity:1;stroke:none;stroke-width:0.80072993px;stroke-linecap:butt;stroke-linejoin:miter;stroke-opacity:1"
       d="m 517.40681,547.49457 c 1.67811,0 2.41648,-0.73837 2.41648,-2.41648 v -8.52478 l 10.20288,-13.82759 c 2.01373,-2.7521 2.55072,-4.09458 2.55072,-8.25629 v -12.88786 c 0,-1.6781 -0.73836,-2.41647 -2.41647,-2.41647 h -10.00151 c -1.67811,0 -2.41648,0.73837 -2.41648,2.41647 v 11.00838 c 0,0.93974 0,1.87948 -0.60411,2.81922 l -3.08772,4.83295 c -0.46987,0.80549 -0.87262,1.14111 -1.61098,1.14111 h -0.67125 c -0.73836,0 -1.14111,-0.33562 -1.61098,-1.14111 l -3.08771,-4.83295 c -0.60412,-0.93974 -0.60412,-1.87948 -0.60412,-2.81922 v -11.00838 c 0,-1.6781 -0.73837,-2.41647 -2.41648,-2.41647 h -10.33713 c -1.67811,0 -2.41648,0.73837 -2.41648,2.41647 v 12.88786 c 0,4.16171 0.46987,5.50419 2.55073,8.25629 l 10.27001,13.76047 v 8.5919 c 0,1.67811 0.67124,2.41648 2.41647,2.41648 z m -4.63157,-17.51943 h -0.46987 v 11.47824 h -0.67124 v -11.47824 h -0.67125 c -1.9466,0 -3.42333,-0.8055 -4.90007,-2.81922 l -6.51105,-9.06178 c -1.00686,-1.34248 -1.00686,-3.22196 -1.00686,-5.16857 v -7.71929 h 0.67124 v 7.71929 c 0,1.87948 0.0671,3.55759 0.93974,4.90007 l 6.51105,9.06178 c 1.20824,1.81236 2.7521,2.41647 4.29595,2.41647 h 1.81236 c 1.6781,0 3.02059,-0.67124 4.36308,-2.41647 l 6.71242,-9.06178 c 0.93974,-1.20823 0.93974,-3.02059 0.93974,-4.90007 v -7.71929 h 0.67124 v 7.71929 c 0,1.94661 0.0671,3.75896 -1.00686,5.16857 l -6.71243,9.06178 c -1.47673,1.9466 -2.88634,2.81922 -4.96719,2.81922 z" />
    <path
       d="m 461.68179,332.26157 c 0,49.13307 -39.87032,88.60065 -88.60065,88.60065 -48.73042,0 -88.60073,-39.46758 -88.60073,-88.60065 0,-48.73042 39.87031,-88.60067 88.60073,-88.60067 49.13307,0 88.60065,39.87025 88.60065,88.60067"
       id="path20-9"
       inkscape:connector-curvature="0"
       style="fill:#cc9933;fill-opacity:0.94117647;stroke-width:2.86659813" />
    <path
       d="m 452.01625,332.26157 c 0,43.49487 -35.4403,78.93508 -78.93511,78.93508 -43.4949,0 -78.93519,-35.44021 -78.93519,-78.93508 0,-43.49489 35.44029,-78.93519 78.93519,-78.93519 43.49481,0.40253 78.93511,35.4403 78.93511,78.93519"
       id="path22-3"
       inkscape:connector-curvature="0"
       style="fill:#ffffff;fill-opacity:1;stroke-width:2.86659813" />
    <path
       style="fill:#5b96dd;fill-opacity:1;stroke-width:2.86659813"
       d="m 437.11525,332.26163 a 64.034103,64.034103 0 0 1 -64.0341,64.0341 64.034103,64.034103 0 0 1 -64.03411,-64.0341 64.034103,64.034103 0 0 1 64.03411,-64.03411 64.034103,64.034103 0 0 1 64.0341,64.03411 z"
       id="circle24-6" />
    <path
       style="fill:#00356b;fill-opacity:1;stroke-width:2.86659813"
       d="m 407.71595,332.26163 a 34.6348,34.6348 0 0 1 -34.6348,34.6348 34.6348,34.6348 0 0 1 -34.6348,-34.6348 34.6348,34.6348 0 0 1 34.6348,-34.6348 34.6348,34.6348 0 0 1 34.6348,34.6348 z"
       id="circle26-0" />
    <path
       style="opacity:0.5;fill:#f5f5f5;stroke-width:2.86659813"
       inkscape:connector-curvature="0"
       id="path30-6"
       d="m 420.20056,305.2786 c 0,10.87369 -8.86014,19.73381 -19.73377,19.73381 -10.87367,0 -19.73372,-8.86012 -19.73372,-19.73381 0,-10.87373 8.86005,-19.73381 19.73372,-19.73381 10.87363,-0.40253 19.73377,8.86008 19.73377,19.73381" />
    <path
       style="opacity:0.5;fill:#f5f5f5;stroke-width:2.86659813"
       d="m 346.5009,366.89639 a 7.6518745,7.6518745 0 0 1 -7.65187,7.65188 7.6518745,7.6518745 0 0 1 -7.65188,-7.65188 7.6518745,7.6518745 0 0 1 7.65188,-7.65187 7.6518745,7.6518745 0 0 1 7.65187,7.65187 z"
       id="circle34-2" />
    <path
       style="opacity:0.8;fill:#000000;fill-opacity:1;stroke:none;stroke-width:5.14535236;stroke-opacity:1"
       d="m 241.07959,269.61803 v 17.81529 h 264.4152 v -17.81529 z m 0.14486,53.44404 c 0.10356,6.10271 0.27561,12.06028 0.59035,17.81529 h 263.57677 c 0.27843,-5.76037 0.31229,-11.76993 0.27344,-17.81529 z m 5.36199,53.44405 c 1.58203,6.35574 3.61264,12.31318 6.23299,17.81528 h 240.4991 c 0.87417,-1.83189 1.69692,-3.69552 2.54971,-5.62635 0.94674,-2.16619 2.17018,-4.44481 2.96256,-6.66761 0.44766,-1.29664 0.32387,-2.02689 0.74065,-3.3338 0.21688,-0.6991 0.43944,-1.4298 0.66277,-2.18752 z"
       id="path4-7-6"
       inkscape:connector-curvature="0"
       sodipodi:nodetypes="cccccccccccccccccc" />
    <path
       style="fill:#286dc0;fill-opacity:1;fill-rule:evenodd;stroke:none;stroke-width:0.92716265px;stroke-linecap:butt;stroke-linejoin:miter;stroke-opacity:1"
       d="m 283.58058,429.95017 h 178.18856 c -27.86319,15.67882 -54.26325,32.63787 -88.84954,42.43398 -29.77968,-9.01818 -59.55935,-24.63888 -89.33902,-42.43398 z"
       id="path1108-1"
       inkscape:connector-curvature="0"
       sodipodi:nodetypes="cccc" />
    <path
       style="opacity:1;fill:#00356b;fill-opacity:1;stroke:none;stroke-width:2.31790662;stroke-linejoin:round;stroke-miterlimit:4;stroke-dasharray:none;stroke-dashoffset:0;stroke-opacity:1"
       d="m 241.07959,181.1906 h 265.45273 v 52.79865 H 241.07959 Z"
       id="rect1110" />
  </g>
</svg>
