<?xml version="1.0" encoding="UTF-8" standalone="no"?>
<!-- Created with Inkscape (http://www.inkscape.org/) -->

<svg
   xmlns:dc="http://purl.org/dc/elements/1.1/"
   xmlns:cc="http://creativecommons.org/ns#"
   xmlns:rdf="http://www.w3.org/1999/02/22-rdf-syntax-ns#"
   xmlns:svg="http://www.w3.org/2000/svg"
   xmlns="http://www.w3.org/2000/svg"
   xmlns:xlink="http://www.w3.org/1999/xlink"
   xmlns:sodipodi="http://sodipodi.sourceforge.net/DTD/sodipodi-0.dtd"
   xmlns:inkscape="http://www.inkscape.org/namespaces/inkscape"
   width="120.1796mm"
   height="79.022224mm"
   viewBox="0 0 425.83324 280.00001"
   id="svg4694"
   version="1.1"
   inkscape:version="0.91 r13725"
   sodipodi:docname="privacylab_mascot.svg"
   inkscape:export-filename="/home/diggity/git/citizen-foss/images/privacy_lab_mascot.png"
   inkscape:export-xdpi="338.14285"
   inkscape:export-ydpi="338.14285">
  <defs
     id="defs4696">
    <linearGradient
       inkscape:collect="always"
       xlink:href="#linearGradient4453"
       id="linearGradient4370"
       x1="-105.08423"
       y1="362.35941"
       x2="-105.08424"
       y2="399.94574"
       gradientUnits="userSpaceOnUse"
       gradientTransform="matrix(1.6617173,0,0,-1.6617173,297.85345,1165.53)" />
    <linearGradient
       inkscape:collect="always"
       id="linearGradient4453">
      <stop
         style="stop-color:#000000;stop-opacity:1;"
         offset="0"
         id="stop4455" />
      <stop
         style="stop-color:#000000;stop-opacity:0;"
         offset="1"
         id="stop4457" />
    </linearGradient>
    <linearGradient
       inkscape:collect="always"
       xlink:href="#linearGradient4453"
       id="linearGradient4459"
       x1="45.873314"
       y1="-307.87781"
       x2="162.47327"
       y2="-307.87781"
       gradientUnits="userSpaceOnUse"
       gradientTransform="matrix(2.3321928,0,0,2.3321928,-1530.2793,588.70795)" />
    <path
       inkscape:connector-curvature="0"
       d="m -1404.1282,-394.17267 c -2.7656,-1.74164 -5.3929,-5.10861 -5.116,-8.35914 -0.2764,-5.31129 4.8406,-9.79472 10.6486,-9.56189 0,0 47.9862,1.10823 74.9543,-24.7191 14.6596,-13.88583 21.022,-32.99676 19.5027,-57.92757 -3.5916,-56.20327 9.1335,-94.42506 37.3457,-113.47542 33.6058,-22.50352 75.0913,-9.22093 76.4743,-8.35004 5.6696,1.85807 9.5413,7.72114 8.0198,12.75643 -1.5216,5.03532 -7.6065,8.05299 -13.2761,6.19493 0,0 -32.6355,-10.27779 -57.3903,6.66884 -22.4038,15.00233 -32.5011,48.02932 -29.0475,97.29604 1.7958,30.24212 -6.7797,53.95288 -25.4499,72.16267 -34.0213,31.66018 -88.5068,29.88372 -90.7195,30.20269 -2.0742,-1.30627 -4.5633,-2.0176 -5.9461,-2.88844"
       id="path8"
       style="fill:none;fill-opacity:1;stroke:none" />
  </defs>
  <sodipodi:namedview
     id="base"
     pagecolor="#ffffff"
     bordercolor="#666666"
     borderopacity="1.0"
     inkscape:pageopacity="0.0"
     inkscape:pageshadow="2"
     inkscape:zoom="1.4"
     inkscape:cx="228.97006"
     inkscape:cy="-16.438017"
     inkscape:document-units="px"
     inkscape:current-layer="layer1"
     showgrid="false"
     fit-margin-left="0"
     fit-margin-top="0"
     fit-margin-bottom="0"
     fit-margin-right="0"
     inkscape:window-width="1920"
     inkscape:window-height="1107"
     inkscape:window-x="0"
     inkscape:window-y="25"
     inkscape:window-maximized="1" />
  <metadata
     id="metadata4699">
    <rdf:RDF>
      <cc:Work
         rdf:about="">
        <dc:format>image/svg+xml</dc:format>
        <dc:type
           rdf:resource="http://purl.org/dc/dcmitype/StillImage" />
        <dc:title></dc:title>
      </cc:Work>
    </rdf:RDF>
  </metadata>
  <g
     inkscape:label="Layer 1"
     inkscape:groupmode="layer"
     id="layer1"
     transform="translate(-40.774059,-485.9657)">
    <g
       id="g4514"
       transform="matrix(0.68540405,0,0,0.68540405,1290.6171,943.97783)">
      <text
         sodipodi:linespacing="125%"
         id="text5364-0"
         style="font-style:normal;font-weight:normal;font-size:20.49601364px;line-height:125%;font-family:Sans;letter-spacing:0px;word-spacing:0px;fill:url(#linearGradient4459);fill-opacity:1;stroke:none;stroke-width:1px;stroke-linecap:butt;stroke-linejoin:miter;stroke-opacity:1"
         xml:space="preserve"><textPath
           id="textPath4511"
           xlink:href="#path8"
           style="fill:url(#linearGradient4459)"><tspan
   id="tspan5366"
   style="fill:url(#linearGradient4459);fill-opacity:1">    011110010110111101110101</tspan></textPath></text>
      <path
         inkscape:connector-curvature="0"
         d="m -1404.1282,-394.17267 c -2.7656,-1.74164 -5.3929,-5.10861 -5.116,-8.35914 -0.2764,-5.31129 4.8406,-9.79472 10.6486,-9.56189 0,0 47.9862,1.10823 74.9543,-24.7191 14.6596,-13.88583 21.022,-32.99676 19.5027,-57.92757 -3.5916,-56.20327 9.1335,-94.42506 37.3457,-113.47542 33.6058,-22.50352 75.0913,-9.22093 76.4743,-8.35004 5.6696,1.85807 9.5413,7.72114 8.0198,12.75643 -1.5216,5.03532 -7.6065,8.05299 -13.2761,6.19493 0,0 -32.6355,-10.27779 -57.3903,6.66884 -22.4038,15.00233 -32.5011,48.02932 -29.0475,97.29604 1.7958,30.24212 -6.7797,53.95288 -25.4499,72.16267 -34.0213,31.66018 -88.5068,29.88372 -90.7195,30.20269 -2.0742,-1.30627 -4.5633,-2.0176 -5.9461,-2.88844"
         id="path4676"
         style="fill:none;fill-opacity:1;stroke:none" />
    </g>
    <path
       inkscape:connector-curvature="0"
       style="fill:#286dc0;fill-opacity:1"
       d="m 235.53642,545.55343 c -24.67881,0 -91.41588,38.16231 -90.72063,129.02497 0,14.53803 0.69515,50.88309 7.64686,56.69831 6.95176,6.17865 23.98366,-9.44972 32.32576,-5.45175 8.34216,4.3614 11.12285,19.98978 20.50776,22.17047 9.38485,2.18071 20.85532,-10.54007 30.24025,-10.54007 9.38488,0 21.20285,12.72078 30.24016,10.54007 9.03731,-2.18069 12.16556,-17.80907 20.50772,-22.17047 7.99453,-3.99797 25.374,11.26697 32.32565,5.45175 6.95178,-6.17866 7.64703,-42.52372 7.64703,-56.69831 0.69513,-82.13985 -58.3949,-129.02497 -90.72056,-129.02497"
       id="path10-3" />
    <path
       style="fill:#00356b;fill-opacity:1"
       d="m 235.5368,545.55374 c -0.34544,0 -0.70156,0.009 -1.06313,0.025 l 0,191.93481 c 0.357,-0.0341 0.71175,-0.0584 1.06313,-0.0584 9.38481,0 21.20247,12.7205 30.23978,10.53978 9.03731,-2.18068 12.16512,-17.80825 20.50731,-22.16965 7.99447,-3.99797 25.37469,11.26697 32.32641,5.45178 6.95175,-6.17869 7.64715,-42.5235 7.64715,-56.69806 0.69522,-82.13984 -58.395,-129.02512 -90.72065,-129.02512 z"
       id="path10-3-7"
       inkscape:connector-curvature="0" />
    <path
       inkscape:connector-curvature="0"
       id="path290"
       style="fill:#28242c;fill-opacity:1;fill-rule:evenodd;stroke:none"
       d="m 122.05971,557.83437 c -3.67979,0 -6.65004,3.126 -6.65004,6.99067 l 0,91.2562 c 0,3.85384 2.97025,6.98194 6.65004,6.98194 l 17.78285,0 c 3.6807,0 6.66182,-3.1281 6.66182,-6.98371 0,-3.86782 -2.98112,-6.99592 -6.66182,-6.99592 l -11.12622,0 0,-84.25851 c 0,-3.86467 -2.9794,-6.99067 -6.65663,-6.99067" />
    <path
       inkscape:connector-curvature="0"
       id="path350"
       style="fill:#ffffff;fill-opacity:1;fill-rule:evenodd;stroke:none"
       d="m 203.20829,686.14121 c 0,3.09581 -2.51037,5.59912 -5.58523,5.59912 -3.08631,0 -5.59904,-2.501 -5.59904,-5.59912 0,-3.08175 2.51273,-5.5851 5.59904,-5.5851 3.07486,0 5.58523,2.50335 5.58523,5.5851" />
    <path
       inkscape:connector-curvature="0"
       id="path350-9"
       style="fill:#ffffff;fill-opacity:1;fill-rule:evenodd;stroke:none"
       d="m 240.67627,686.14121 c 0,3.09581 -2.51028,5.59912 -5.58503,5.59912 -3.08635,0 -5.59913,-2.501 -5.59913,-5.59912 0,-3.08175 2.51278,-5.5851 5.59913,-5.5851 3.07475,0 5.58503,2.50335 5.58503,5.5851" />
    <path
       inkscape:connector-curvature="0"
       id="path350-9-1"
       style="fill:#ffffff;fill-opacity:1;fill-rule:evenodd;stroke:none"
       d="m 278.14445,686.14121 c 0,3.09581 -2.51031,5.59912 -5.58506,5.59912 -3.08644,0 -5.59922,-2.501 -5.59922,-5.59912 0,-3.08175 2.51278,-5.5851 5.59922,-5.5851 3.07475,0 5.58506,2.50335 5.58506,5.5851" />
    <path
       inkscape:connector-curvature="0"
       id="path354"
       style="fill:#003e7a;fill-opacity:1;fill-rule:evenodd;stroke:none"
       d="m 141.14258,670.13705 c 0,2.74975 1.93326,4.98606 4.31314,4.98606 2.37319,-5.3e-4 4.30233,-2.23631 4.30233,-4.98606 l 0,-27.41084 c 0,-2.75203 -1.92989,-4.9815 -4.30233,-4.9815 -2.37988,0 -4.31314,2.22947 -4.31314,4.9815 l 0,27.41084" />
    <path
       id="path5"
       d="m 103.70752,551.0248 6.32377,5.30241 c 6.30723,-7.53284 19.03476,-7.53284 25.33381,0.006 l 6.33191,-5.28503 c -4.72877,-5.65275 -11.65608,-8.89175 -19.0024,-8.89175 -7.34674,0 -14.26597,3.23031 -18.98709,8.86809 z m -11.58246,-11.81609 6.11387,5.54234 c 6.24265,-6.89553 15.1516,-10.84228 24.456,-10.84228 9.29649,0 18.20543,3.94675 24.44868,10.82597 l 6.10594,-5.54234 c -7.80699,-8.60316 -18.94038,-13.53238 -30.55462,-13.53238 -11.62403,-2.8e-4 -22.76474,4.94553 -30.56987,13.54869 z m -11.63222,-11.71975 6.02489,5.63072 c 9.32779,-9.98166 22.51504,-15.70897 36.17688,-15.70897 13.86404,0 26.70308,5.57497 36.16062,15.69238 l 6.02595,-5.63944 c -10.87559,-11.63081 -26.25368,-18.30116 -42.18684,-18.30116 -15.94145,0 -31.31889,6.67797 -42.2015,18.32647 z"
       inkscape:connector-curvature="0"
       sodipodi:nodetypes="ccccsccccsccccccsccsc"
       style="fill:url(#linearGradient4370);fill-opacity:1" />
    <path
       inkscape:connector-curvature="0"
       id="path354-5"
       style="fill:#4078bd;fill-opacity:1;fill-rule:evenodd;stroke:none"
       d="m 320.9213,670.13705 c 0,2.74975 1.93325,4.98606 4.31312,4.98606 2.37319,-5.3e-4 4.30235,-2.23631 4.30235,-4.98606 l 0,-27.41084 c 0,-2.75203 -1.92991,-4.9815 -4.30235,-4.9815 -2.37987,0 -4.31312,2.22947 -4.31312,4.9815 l 0,27.41084" />
    <path
       d="m 273.79595,622.90487 c 0,21.55134 -17.4884,38.86309 -38.86309,38.86309 -21.37472,0 -38.86312,-17.31175 -38.86312,-38.86309 0,-21.37472 17.4884,-38.8631 38.86312,-38.8631 21.55134,0 38.86309,17.48838 38.86309,38.8631"
       id="path20"
       inkscape:connector-curvature="0"
       style="fill:#d4aa00;fill-opacity:1" />
    <path
       d="m 269.55633,622.90487 c 0,19.07824 -15.54525,34.62346 -34.62347,34.62346 -19.07825,0 -34.6235,-15.54522 -34.6235,-34.62346 0,-19.07825 15.54525,-34.6235 34.6235,-34.6235 19.07822,0.17656 34.62347,15.54525 34.62347,34.6235"
       id="path22"
       inkscape:connector-curvature="0"
       style="fill:#ffffff;fill-opacity:1" />
    <circle
       cx="234.93286"
       cy="622.90491"
       id="circle24"
       style="fill:#6eb1e1;fill-opacity:1"
       r="28.087412" />
    <circle
       cx="234.93286"
       cy="622.90491"
       id="circle26"
       style="fill:#212528"
       r="15.191935" />
    <path
       style="opacity:0.5;fill:#f5f5f5"
       inkscape:connector-curvature="0"
       id="path30"
       d="m 255.60095,611.06927 c 0,4.76956 -3.88634,8.65588 -8.65587,8.65588 -4.76953,0 -8.65584,-3.88632 -8.65584,-8.65588 0,-4.76956 3.88631,-8.65587 8.65584,-8.65587 4.76953,-0.17657 8.65587,3.88631 8.65587,8.65587" />
    <circle
       style="opacity:0.5;fill:#f5f5f5"
       id="circle34"
       cy="638.0968"
       cx="219.91757"
       r="3.3563576" />
  </g>
</svg>
